<?xml version="1.0" encoding="UTF-8" standalone="no"?>
<!-- Created with Inkscape (http://www.inkscape.org/) -->

<svg
   version="1.1"
   id="svg1"
   width="172.48659"
   height="100.77934"
   viewBox="0 0 172.48659 100.77934"
   sodipodi:docname="omni_mean_rot.pdf"
   xmlns:inkscape="http://www.inkscape.org/namespaces/inkscape"
   xmlns:sodipodi="http://sodipodi.sourceforge.net/DTD/sodipodi-0.dtd"
   xmlns="http://www.w3.org/2000/svg"
   xmlns:svg="http://www.w3.org/2000/svg">
  <defs
     id="defs1">
    <clipPath
       clipPathUnits="userSpaceOnUse"
       id="clipPath22">
      <path
         d="M 21.545183,17.28353 H 129.36494 V 64.049702 H 21.545183 Z"
         id="path22" />
    </clipPath>
    <clipPath
       clipPathUnits="userSpaceOnUse"
       id="clipPath24">
      <path
         d="M 21.545183,17.28353 H 129.36494 V 64.049702 H 21.545183 Z"
         id="path24" />
    </clipPath>
  </defs>
  <sodipodi:namedview
     id="namedview1"
     pagecolor="#ffffff"
     bordercolor="#000000"
     borderopacity="0.25"
     inkscape:showpageshadow="2"
     inkscape:pageopacity="0.0"
     inkscape:pagecheckerboard="0"
     inkscape:deskcolor="#d1d1d1">
    <inkscape:page
       x="0"
       y="0"
       inkscape:label="1"
       id="page1"
       width="172.48659"
       height="100.77934"
       margin="0"
       bleed="0" />
  </sodipodi:namedview>
  <g
     id="g1"
     inkscape:groupmode="layer"
     inkscape:label="1">
    <path
       id="path1"
       d="M 0,0 H 129.36494 V 75.584504 H 0 Z"
       style="fill:#ffffff;fill-opacity:1;fill-rule:nonzero;stroke:none"
       transform="matrix(1.3333333,0,0,-1.3333333,0,100.77934)" />
    <path
       id="path2"
       d="M 21.545183,17.28353 H 129.36494 V 64.049702 H 21.545183 Z"
       style="fill:#ffffff;fill-opacity:1;fill-rule:nonzero;stroke:none"
       transform="matrix(1.3333333,0,0,-1.3333333,0,100.77934)" />
    <path
       id="path3"
       d="m 3.2805263,-1.9091099 c 0,-0.4335937 0,-2.0625 -1.453125,-2.0625 -1.46484371,0 -1.46484371,1.6289063 -1.46484371,2.0625 0,0.4335938 0,2.03906252 1.46484371,2.03906252 1.453125,0 1.453125,-1.60546872 1.453125,-2.03906252 z m -1.453125,1.83984377 c -0.2578125,0 -0.6679687,-0.1171875 -0.8085937,-0.609375 -0.09375,-0.35156247 -0.09375,-0.93749997 -0.09375,-1.30078127 0,-0.3984375 0,-0.8671875 0.0820312,-1.1835937 0.1523438,-0.5390625 0.609375,-0.6210938 0.8203125,-0.6210938 0.2695313,0 0.6679688,0.1289063 0.796875,0.5859375 0.09375,0.3164063 0.09375,0.75 0.09375,1.21875 0,0.375 0,0.98437502 -0.1054687,1.31250002 -0.1640625,0.52734375 -0.5976563,0.59765625 -0.7851563,0.59765625 z m 0,0"
       style="fill:#262626;fill-opacity:1;fill-rule:nonzero;stroke:none"
       aria-label="0"
       transform="matrix(1.3333333,0,0,1.3333333,28.61034,85.936105)" />
    <path
       id="path4"
       d="m 2.1437721,-3.7958286 c 0,-0.1757813 -0.023437,-0.1757813 -0.1992187,-0.1757813 -0.3984375,0.375 -1.00781253,0.375 -1.21875003,0.375 v 0.234375 c 0.15234375,0 0.55078123,0 0.90234373,-0.1640625 v 3.02343752 c 0,0.1875 0,0.26953125 -0.609375,0.26953125 H 0.76095962 v 0.234375 c 0.32812498,-0.0234375 0.79687498,-0.0234375 1.12499998,-0.0234375 0.3398438,0 0.796875,0 1.1367188,0.0234375 v -0.234375 H 2.7648659 c -0.6210938,0 -0.6210938,-0.0820312 -0.6210938,-0.26953125 z m 0,0"
       style="fill:#262626;fill-opacity:1;fill-rule:nonzero;stroke:none"
       aria-label="1"
       transform="matrix(1.3333333,0,0,1.3333333,62.33695,85.936105)" />
    <path
       id="path5"
       d="M 3.2101429,-1.1122349 H 2.9992054 c -0.023437,0.082031 -0.082031,0.46875002 -0.1640625,0.53906252 -0.046875,0.0351563 -0.5273437,0.0351563 -0.609375,0.0351563 h -1.125 L 1.8742054,-1.1591099 c 0.1992188,-0.1640625 0.7265625,-0.5390625 0.9140625,-0.7265625 0.1757813,-0.1757812 0.421875,-0.4804687 0.421875,-0.9023437 0,-0.75 -0.6679687,-1.1835938 -1.4765625,-1.1835938 -0.76171875,0 -1.30078125,0.5039063 -1.30078125,1.0664063 0,0.3046875 0.2578125,0.3398437 0.31640625,0.3398437 0.15234375,0 0.328125,-0.1054687 0.328125,-0.3164062 0,-0.140625 -0.0820312,-0.328125 -0.33984375,-0.328125 0.12890625,-0.3046875 0.50390625,-0.5273438 0.91406255,-0.5273438 0.6210937,0 0.9609375,0.46875 0.9609375,0.9492188 0,0.421875 -0.28125,0.8554687 -0.703125,1.2421875 l -1.4179688,1.30078122 c -0.0585938,0.0585938 -0.0585938,0.0585938 -0.0585938,0.24609375 h 2.6015626 z m 0,0"
       style="fill:#262626;fill-opacity:1;fill-rule:nonzero;stroke:none"
       aria-label="2"
       transform="matrix(1.3333333,0,0,1.3333333,96.063559,85.936105)" />
    <path
       id="path6"
       d="m 1.7569824,-1.9794224 c 0.5039063,0 0.84375,0.3398438 0.84375,0.9492188 0,0.65624997 -0.3867187,0.93749997 -0.8320312,0.93749997 -0.1523438,0 -0.77343752,-0.03515625 -1.04296877,-0.375 0.234375,-0.0234375 0.32812497,-0.1875 0.32812497,-0.33984375 0,-0.21093752 -0.14062497,-0.33984372 -0.33984372,-0.33984372 -0.1640625,0 -0.33984375,0.09375 -0.33984375,0.35156247 0,0.5859375 0.65624997,0.92578125 1.41796877,0.92578125 0.8789062,0 1.4765625,-0.57421875 1.4765625,-1.16015622 0,-0.4335938 -0.3398438,-0.9023438 -1.0429688,-1.078125 0.46875,-0.1523438 0.8554688,-0.5390625 0.8554688,-1.03125 0,-0.4804688 -0.5625,-0.8320313 -1.2773438,-0.8320313 -0.703125,0 -1.24218747,0.3164063 -1.24218747,0.8085938 0,0.2578125 0.19921875,0.328125 0.31640625,0.328125 0.16406252,0 0.32812502,-0.1054688 0.32812502,-0.3164063 0,-0.1875 -0.140625,-0.2929687 -0.29296877,-0.3164062 0.26953127,-0.3046875 0.82031247,-0.3046875 0.86718747,-0.3046875 0.3046875,0 0.6914063,0.140625 0.6914063,0.6328125 0,0.328125 -0.1875,0.9023437 -0.7851563,0.9375 -0.1054687,0.011719 -0.2695312,0.023437 -0.3164062,0.023437 -0.058594,0 -0.1289063,0.011719 -0.1289063,0.1054687 0,0.09375 0.070312,0.09375 0.1640625,0.09375 z m 0,0"
       style="fill:#262626;fill-opacity:1;fill-rule:nonzero;stroke:none"
       aria-label="3"
       transform="matrix(1.3333333,0,0,1.3333333,129.79017,85.936105)" />
    <path
       id="path7"
       d="M 3.3741345,-0.98332863 V -1.2177036 h -0.703125 v -2.6367188 c 0,-0.140625 0,-0.1757812 -0.1523438,-0.1757812 -0.1054687,0 -0.1171875,0.011719 -0.1757812,0.082031 l -2.07421879,2.7304688 v 0.23437497 H 2.131947 v 0.48046875 c 0,0.19921875 0,0.26953125 -0.5039063,0.26953125 H 1.4522595 v 0.234375 c 0.1289062,-0.01171875 0.6914062,-0.0234375 0.9492187,-0.0234375 0.2578125,0 0.8203125,0.01171875 0.9492188,0.0234375 v -0.234375 H 3.1749157 c -0.5039062,0 -0.5039062,-0.0703125 -0.5039062,-0.26953125 V -0.98332863 Z M 2.178822,-3.3856724 v 2.1679688 H 0.52647821 Z m 0,0"
       style="fill:#262626;fill-opacity:1;fill-rule:nonzero;stroke:none"
       aria-label="4"
       transform="matrix(1.3333333,0,0,1.3333333,163.51678,85.936105)" />
    <path
       id="path8"
       d="m 3.8659634,-2.415218 c 0,-0.6679687 -0.2929688,-1.1015625 -1.1367188,-1.1015625 -0.7851562,0 -1.1484375,0.5742188 -1.2421875,0.7617188 h -0.011719 v -0.7617188 l -1.14843754,0.09375 v 0.2578125 c 0.5390625,0 0.609375,0.058594 0.609375,0.4453125 v 2.09765629 c 0,0.36328125 -0.10546875,0.36328125 -0.609375,0.36328125 v 0.2578125 c 0.33984375,-0.0234375 0.69140624,-0.0234375 0.90234374,-0.0234375 0.234375,0 0.5742188,0 0.9140625,0.0234375 v -0.2578125 c -0.515625,0 -0.609375,0 -0.609375,-0.36328125 V -2.0636555 c 0,-0.84375 0.6445313,-1.2304687 1.125,-1.2304687 0.4921875,0 0.609375,0.3398437 0.609375,0.84375 v 1.82812499 c 0,0.36328125 -0.09375,0.36328125 -0.609375,0.36328125 v 0.2578125 c 0.3398438,-0.0234375 0.6914063,-0.0234375 0.9140625,-0.0234375 0.2226563,0 0.5625,0 0.9023438,0.0234375 v -0.2578125 c -0.5039063,0 -0.609375,0 -0.609375,-0.36328125 z m 4.8193359,0.7148438 c 0,-0.9960938 -0.8203125,-1.8515625 -1.875,-1.8515625 -1.0546875,0 -1.875,0.8554687 -1.875,1.8515625 0,0.99609374 0.8554688,1.78124999 1.875,1.78124999 1.03125,0 1.875,-0.78515625 1.875,-1.78124999 z m -1.875,1.53515624 c -0.4335937,0 -0.7617187,-0.2109375 -0.9375,-0.4921875 -0.1992187,-0.328125 -0.2226562,-0.71484374 -0.2226562,-1.11328124 0,-0.3046875 0,-0.7851563 0.2460937,-1.125 0.2109375,-0.28125 0.5390625,-0.4335938 0.9140625,-0.4335938 0.421875,0 0.7617188,0.1992188 0.9375,0.4804688 0.2226563,0.328125 0.2226563,0.7617187 0.2226563,1.078125 0,0.3632812 -0.011719,0.80859374 -0.234375,1.13671874 -0.2109375,0.31640625 -0.5742188,0.46875 -0.9257813,0.46875 z M 10.492916,-4.9113117 c 0,-0.234375 -0.1875,-0.4453125 -0.445312,-0.4453125 -0.234375,0 -0.4453125,0.1875 -0.4453125,0.4335937 0,0.28125 0.234375,0.4570313 0.4453125,0.4570313 0.269531,0 0.445312,-0.234375 0.445312,-0.4453125 z m -1.195312,1.4882812 v 0.2578125 c 0.5039062,0 0.5742187,0.046875 0.5742187,0.4335938 v 2.10937499 c 0,0.36328125 -0.09375,0.36328125 -0.5976562,0.36328125 v 0.2578125 c 0.3046875,-0.0234375 0.7499995,-0.0234375 0.8671875,-0.0234375 0.105469,0 0.585937,0 0.867187,0.0234375 v -0.2578125 c -0.515625,0 -0.550781,-0.046875 -0.550781,-0.3515625 V -3.5167805 Z m 4.825195,0.070312 c 0,-0.1171875 0,-0.1992187 -0.105468,-0.1992187 -0.03516,0 -0.05859,0 -0.1875,0.1289062 -0.01172,0 -0.09375,0.070312 -0.117188,0.070312 0,0 -0.02344,0 -0.07031,-0.023437 -0.128907,-0.09375 -0.351563,-0.1757812 -0.714844,-0.1757812 -1.113281,0 -1.359375,0.5976562 -1.359375,0.984375 0,0.3984375 0.292969,0.6328125 0.316406,0.65625 0.316406,0.234375 0.503906,0.2695312 1.03125,0.3632812 0.375,0.070312 0.996094,0.1875 0.996094,0.72656254 0,0.3046875 -0.210938,0.6796875 -0.949219,0.6796875 -0.796875,0 -1.03125,-0.62109375 -1.136719,-1.04296874 -0.02344,-0.1054688 -0.03516,-0.1523438 -0.128906,-0.1523438 -0.128906,0 -0.128906,0.070312 -0.128906,0.2226563 v 0.98437499 c 0,0.12890625 0,0.2109375 0.105469,0.2109375 0.04687,0 0.04687,-0.01171875 0.199218,-0.1640625 0.03516,-0.03515625 0.128907,-0.140625 0.164063,-0.17578125 0.363281,0.31640625 0.726562,0.33984375 0.9375,0.33984375 1.019531,0 1.359375,-0.5859375 1.359375,-1.11328129 0,-0.375 -0.222656,-0.9375 -1.171875,-1.1132812 -0.07031,-0.011719 -0.515625,-0.09375 -0.539063,-0.09375 -0.257812,-0.058594 -0.621093,-0.2226563 -0.621093,-0.5390625 0,-0.2460938 0.164062,-0.5742188 0.925781,-0.5742188 0.890625,0 0.9375,0.6445313 0.949219,0.8789063 0.01172,0.058594 0.05859,0.082031 0.117187,0.082031 0.128906,0 0.128906,-0.058594 0.128906,-0.2109375 z m 3.793946,1.5351563 c 0.175781,0 0.222656,0 0.222656,-0.1875 0,-0.703125 -0.386719,-1.546875 -1.511719,-1.546875 -0.996094,0 -1.769531,0.8203125 -1.769531,1.8046875 0,1.03124999 0.867187,1.82812499 1.875,1.82812499 1.007812,0 1.40625,-0.85546875 1.40625,-1.04296875 0,-0.0234375 -0.02344,-0.10546874 -0.128906,-0.10546874 -0.08203,0 -0.105469,0.058594 -0.117188,0.10546874 -0.292969,0.7734375 -0.972656,0.796875 -1.113281,0.796875 -0.363281,0 -0.726563,-0.17578125 -0.972656,-0.5390625 C 15.572995,-1.0675617 15.572995,-1.5831867 15.572995,-1.8175617 Z m -2.332032,-0.2109375 c 0.07031,-1.1132813 0.75,-1.3007813 1.042969,-1.3007813 0.925781,0 0.960938,1.125 0.972656,1.3007813 z m 8.460938,-1.3242188 c 0,-0.1171875 0,-0.1992187 -0.105469,-0.1992187 -0.03516,0 -0.05859,0 -0.1875,0.1289062 -0.01172,0 -0.09375,0.070312 -0.117187,0.070312 0,0 -0.02344,0 -0.07031,-0.023437 -0.128906,-0.09375 -0.351562,-0.1757812 -0.714844,-0.1757812 -1.113281,0 -1.359375,0.5976562 -1.359375,0.984375 0,0.3984375 0.292969,0.6328125 0.316407,0.65625 0.316406,0.234375 0.503906,0.2695312 1.03125,0.3632812 0.375,0.070312 0.996093,0.1875 0.996093,0.72656254 0,0.3046875 -0.210937,0.6796875 -0.949218,0.6796875 -0.796875,0 -1.03125,-0.62109375 -1.136719,-1.04296874 -0.02344,-0.1054688 -0.03516,-0.1523438 -0.128906,-0.1523438 -0.128907,0 -0.128907,0.070312 -0.128907,0.2226563 v 0.98437499 c 0,0.12890625 0,0.2109375 0.105469,0.2109375 0.04687,0 0.04687,-0.01171875 0.199219,-0.1640625 0.03516,-0.03515625 0.128906,-0.140625 0.164062,-0.17578125 0.363282,0.31640625 0.726563,0.33984375 0.9375,0.33984375 1.019532,0 1.359375,-0.5859375 1.359375,-1.11328129 0,-0.375 -0.222656,-0.9375 -1.171875,-1.1132812 -0.07031,-0.011719 -0.515625,-0.09375 -0.539062,-0.09375 -0.257813,-0.058594 -0.621094,-0.2226563 -0.621094,-0.5390625 0,-0.2460938 0.164063,-0.5742188 0.925781,-0.5742188 0.890625,0 0.9375,0.6445313 0.949219,0.8789063 0.01172,0.058594 0.05859,0.082031 0.117188,0.082031 0.128906,0 0.128906,-0.058594 0.128906,-0.2109375 z m 3.433594,0.1875 c -0.222657,0.070312 -0.257813,0.2578125 -0.257813,0.3515625 0,0.2109375 0.152344,0.375 0.375,0.375 0.210938,0 0.375,-0.140625 0.375,-0.3867187 0,-0.4921875 -0.539062,-0.7265625 -1.289062,-0.7265625 -1.101563,0 -1.851563,0.8789062 -1.851563,1.828125 0,1.00781249 0.832031,1.80468749 1.828125,1.80468749 1.125,0 1.40625,-0.9375 1.40625,-1.04296875 0,-0.09375 -0.105469,-0.09375 -0.128906,-0.09375 -0.05859,0 -0.09375,0.011719 -0.117188,0.09375 -0.05859,0.1640625 -0.28125,0.796875 -1.078125,0.796875 -0.492187,0 -1.207031,-0.38671875 -1.207031,-1.57031254 0,-1.1367187 0.597656,-1.5703125 1.171875,-1.5703125 0.07031,0 0.492188,0 0.773438,0.140625 z m 4.183593,0.7851563 c 0,-0.7734375 -0.761718,-1.171875 -1.488281,-1.171875 -0.65625,0 -1.253906,0.2460937 -1.253906,0.7734375 0,0.2460937 0.175781,0.3867187 0.375,0.3867187 0.222656,0 0.375,-0.1640625 0.375,-0.375 0,-0.1875 -0.117188,-0.328125 -0.292969,-0.3632812 0.292969,-0.1992188 0.726563,-0.1992188 0.785156,-0.1992188 0.445313,0 0.890625,0.3046875 0.890625,0.9609375 v 0.2460938 c -0.46875,0.023437 -0.996093,0.046875 -1.558593,0.28125 -0.703125,0.3046875 -0.832032,0.7617187 -0.832032,1.03124999 0,0.6796875 0.808594,0.890625 1.359375,0.890625 0.574219,0 0.9375,-0.328125 1.113282,-0.64453125 0.03516,0.3046875 0.246093,0.59765625 0.597656,0.59765625 0.08203,0 0.75,-0.0234375 0.75,-0.75 V -1.1613117 h -0.246094 v 0.44531249 c 0,0.328125 -0.117187,0.45703125 -0.28125,0.45703125 -0.292969,0 -0.292969,-0.375 -0.292969,-0.45703125 z m -0.609375,1.2539062 c 0,0.77343754 -0.65625,0.98437504 -0.972656,0.98437504 -0.410156,0 -0.761719,-0.28125 -0.761719,-0.66796875 0,-0.52734379 0.492188,-1.06640629 1.734375,-1.10156249 z m 3.014649,-4.40625 -1.183594,0.09375 v 0.2578125 c 0.539063,0 0.597656,0.058594 0.597656,0.4453125 v 4.11328129 c 0,0.36328125 -0.09375,0.36328125 -0.597656,0.36328125 v 0.2578125 c 0.304688,-0.0234375 0.75,-0.0234375 0.890625,-0.0234375 0.152344,0 0.585938,0 0.902344,0.0234375 v -0.2578125 c -0.515625,0 -0.609375,0 -0.609375,-0.36328125 z m 4.11914,3.7148438 c 0.175782,0 0.222657,0 0.222657,-0.1875 0,-0.703125 -0.386719,-1.546875 -1.511719,-1.546875 -0.996094,0 -1.769531,0.8203125 -1.769531,1.8046875 0,1.03124999 0.867187,1.82812499 1.875,1.82812499 1.007812,0 1.40625,-0.85546875 1.40625,-1.04296875 0,-0.0234375 -0.02344,-0.10546874 -0.128907,-0.10546874 -0.08203,0 -0.105468,0.058594 -0.117187,0.10546874 -0.292969,0.7734375 -0.972656,0.796875 -1.113281,0.796875 -0.363282,0 -0.726563,-0.17578125 -0.972657,-0.5390625 C 35.843502,-1.0675617 35.843502,-1.5831867 35.843502,-1.8175617 Z m -2.332031,-0.2109375 c 0.07031,-1.1132813 0.75,-1.3007813 1.042969,-1.3007813 0.925781,0 0.960937,1.125 0.972656,1.3007813 z m 7.78125,4.0195312 V 1.6277508 h -0.796875 v -7.2421875 h 0.796875 V -5.977718 h -1.171875 v 7.96875 z m 2.291016,-0.7148437 c -0.515625,0 -0.609375,0 -0.609375,-0.35156251 v -1.3125 c 0.375,0.3984375 0.785156,0.46875 1.042969,0.46875 1.007812,0 1.886718,-0.78515625 1.886718,-1.80468749 0,-0.9960938 -0.808593,-1.7929688 -1.769531,-1.7929688 -0.316406,0 -0.773437,0.082031 -1.183594,0.4921875 V -3.516781 l -1.183593,0.09375 v 0.2578125 c 0.5625,0 0.597656,0.046875 0.597656,0.3867188 v 3.70312499 c 0,0.35156251 -0.09375,0.35156251 -0.597656,0.35156251 V 1.545719 c 0.339843,-0.023437 0.691406,-0.023437 0.902343,-0.023437 0.234375,0 0.574219,0 0.914063,0.023437 z M 45.318112,-2.649593 c 0.1875,-0.328125 0.585937,-0.6210937 1.089844,-0.6210937 0.609375,0 1.125,0.6796875 1.125,1.546875 0,0.91406249 -0.574219,1.58203124 -1.21875,1.58203124 -0.28125,0 -0.644532,-0.1171875 -0.902344,-0.515625 -0.09375,-0.140625 -0.09375,-0.15234375 -0.09375,-0.3046875 z m 4.772461,-2.2617187 c 0,-0.234375 -0.1875,-0.4453125 -0.445313,-0.4453125 -0.234375,0 -0.445312,0.1875 -0.445312,0.4335937 0,0.28125 0.234375,0.4570313 0.445312,0.4570313 0.269531,0 0.445313,-0.234375 0.445313,-0.4453125 z m -1.195313,1.4882812 v 0.2578125 c 0.503906,0 0.574219,0.046875 0.574219,0.4335938 v 2.10937499 c 0,0.36328125 -0.09375,0.36328125 -0.597656,0.36328125 v 0.2578125 c 0.304687,-0.0234375 0.75,-0.0234375 0.867187,-0.0234375 0.105469,0 0.585938,0 0.867188,0.0234375 v -0.2578125 c -0.515625,0 -0.550782,-0.046875 -0.550782,-0.3515625 V -3.5167805 Z m 4.438477,1.5585938 c 0.222656,-0.28125 0.457031,-0.5507813 0.703125,-0.8085938 0.257812,-0.28125 0.539062,-0.4921875 1.042969,-0.5039062 v -0.2578125 c -0.316407,0.023437 -0.328125,0.023437 -0.691407,0.023437 -0.03516,0 -0.503906,0 -0.75,-0.023437 v 0.2578125 c 0.152344,0.023437 0.175782,0.1171875 0.175782,0.2226562 0,0.1054688 -0.03516,0.1992188 -0.128907,0.3046875 l -0.503906,0.5976563 -0.632812,-0.75 c -0.09375,-0.1171875 -0.09375,-0.1757813 -0.09375,-0.1875 0,-0.058594 0.04687,-0.1757813 0.246093,-0.1875 v -0.2578125 c -0.316406,0.023437 -0.761718,0.023437 -0.855468,0.023437 -0.140625,0 -0.550782,0 -0.785157,-0.023437 v 0.2578125 c 0.539063,0 0.550782,0.011719 0.960938,0.5039062 l 0.820312,0.9960938 -0.726562,0.84374999 c -0.199219,0.22265625 -0.492188,0.55078125 -1.089844,0.57421875 v 0.2578125 c 0.292969,-0.0234375 0.339844,-0.0234375 0.679688,-0.0234375 0.01172,0 0.503906,0 0.761718,0.0234375 v -0.2578125 c -0.105468,-0.0234375 -0.199218,-0.0820313 -0.199218,-0.22265625 0,-0.140625 0.09375,-0.2578125 0.128906,-0.29296875 0.199219,-0.23437504 0.410156,-0.48046874 0.621094,-0.70312504 l 0.644531,0.77343754 c 0.164062,0.1875 0.164062,0.19921875 0.164062,0.2578125 0,0.0585938 -0.05859,0.17578125 -0.246093,0.1875 v 0.2578125 c 0.339843,-0.0234375 0.703125,-0.0234375 0.855468,-0.0234375 0.140625,0 0.550782,0 0.785157,0.0234375 v -0.2578125 c -0.492188,0 -0.574219,-0.046875 -0.785157,-0.29296875 z m 3.37207,-4.1132813 h -1.171875 v 0.3632813 h 0.796875 V 1.6277508 H 55.533932 V 1.991032 h 1.171875 z m 0,0"
       style="fill:#262626;fill-opacity:1;fill-rule:nonzero;stroke:none"
       aria-label="noisescale[pix]"
       transform="matrix(1.3333333,0,0,1.3333333,62.122726,98.122634)" />
    <g
       id="g8"
       aria-label="0.0"
       transform="matrix(1.3333333,0,0,1.3333333,13.293483,80.502035)">
      <path
         id="path9"
         d="m 3.2808645,-1.9087526 c 0,-0.4335938 0,-2.0625 -1.453125,-2.0625 -1.46484377,0 -1.46484377,1.6289062 -1.46484377,2.0625 0,0.4335937 0,2.03906246 1.46484377,2.03906246 1.453125,0 1.453125,-1.60546876 1.453125,-2.03906246 z m -1.453125,1.83984371 c -0.2578125,0 -0.6679688,-0.1171875 -0.8085938,-0.609375 -0.09375,-0.35156251 -0.09375,-0.93750001 -0.09375,-1.30078121 0,-0.3984375 0,-0.8671875 0.0820313,-1.1835938 0.1523437,-0.5390625 0.609375,-0.6210937 0.8203125,-0.6210937 0.2695312,0 0.6679687,0.1289062 0.796875,0.5859375 0.09375,0.3164062 0.09375,0.75 0.09375,1.21875 0,0.375 0,0.98437496 -0.1054688,1.31249996 -0.1640625,0.52734375 -0.5976562,0.59765625 -0.7851562,0.59765625 z m 0,0"
         style="fill:#262626;fill-opacity:1;fill-rule:nonzero;stroke:none" />
      <path
         id="path10"
         d="m 5.141216,-0.36187764 c 0,-0.2109375 -0.1640625,-0.36328125 -0.3515625,-0.36328125 -0.2109375,0 -0.3632812,0.17578125 -0.3632812,0.36328125 0,0.19921875 0.1640625,0.36328125 0.3632812,0.36328125 0.1875,0 0.3515625,-0.1640625 0.3515625,-0.36328125 z m 0,0"
         style="fill:#262626;fill-opacity:1;fill-rule:nonzero;stroke:none" />
      <path
         id="path11"
         d="m 9.2046926,-1.9087526 c 0,-0.4335938 0,-2.0625 -1.453125,-2.0625 -1.4648437,0 -1.4648437,1.6289062 -1.4648437,2.0625 0,0.4335937 0,2.03906246 1.4648437,2.03906246 1.453125,0 1.453125,-1.60546876 1.453125,-2.03906246 z m -1.453125,1.83984371 c -0.2578125,0 -0.6679687,-0.1171875 -0.8085937,-0.609375 -0.09375,-0.35156251 -0.09375,-0.93750001 -0.09375,-1.30078121 0,-0.3984375 0,-0.8671875 0.082031,-1.1835938 0.1523438,-0.5390625 0.609375,-0.6210937 0.8203125,-0.6210937 0.2695313,0 0.6679688,0.1289062 0.796875,0.5859375 0.09375,0.3164062 0.09375,0.75 0.09375,1.21875 0,0.375 0,0.98437496 -0.1054687,1.31249996 -0.1640625,0.52734375 -0.5976563,0.59765625 -0.7851561,0.59765625 z m 0,0"
         style="fill:#262626;fill-opacity:1;fill-rule:nonzero;stroke:none" />
    </g>
    <g
       id="g11"
       aria-label="0.1"
       transform="matrix(1.3333333,0,0,1.3333333,13.293483,59.017995)">
      <path
         id="path12"
         d="m 3.2808645,-1.9090043 c 0,-0.4335937 0,-2.0625 -1.453125,-2.0625 -1.46484377,0 -1.46484377,1.6289063 -1.46484377,2.0625 0,0.4335938 0,2.03906253 1.46484377,2.03906253 1.453125,0 1.453125,-1.60546873 1.453125,-2.03906253 z m -1.453125,1.83984378 c -0.2578125,0 -0.6679688,-0.1171875 -0.8085938,-0.609375 -0.09375,-0.35156248 -0.09375,-0.93749998 -0.09375,-1.30078128 0,-0.3984375 0,-0.8671875 0.0820313,-1.1835937 0.1523437,-0.5390625 0.609375,-0.6210938 0.8203125,-0.6210938 0.2695312,0 0.6679687,0.1289063 0.796875,0.5859375 0.09375,0.3164063 0.09375,0.75 0.09375,1.21875 0,0.375 0,0.98437503 -0.1054688,1.31250003 -0.1640625,0.52734375 -0.5976562,0.59765625 -0.7851562,0.59765625 z m 0,0"
         style="fill:#262626;fill-opacity:1;fill-rule:nonzero;stroke:none" />
      <path
         id="path13"
         d="m 5.141216,-0.36212927 c 0,-0.2109375 -0.1640625,-0.36328125 -0.3515625,-0.36328125 -0.2109375,0 -0.3632812,0.17578125 -0.3632812,0.36328125 0,0.19921875 0.1640625,0.36328125 0.3632812,0.36328125 0.1875,0 0.3515625,-0.1640625 0.3515625,-0.36328125 z m 0,0"
         style="fill:#262626;fill-opacity:1;fill-rule:nonzero;stroke:none" />
      <path
         id="path14"
         d="m 8.0679739,-3.795723 c 0,-0.1757813 -0.023437,-0.1757813 -0.1992188,-0.1757813 -0.3984375,0.375 -1.0078125,0.375 -1.21875,0.375 v 0.234375 c 0.1523438,0 0.5507813,0 0.9023438,-0.1640625 v 3.02343753 c 0,0.1875 0,0.26953125 -0.609375,0.26953125 H 6.6851614 v 0.234375 c 0.328125,-0.0234375 0.796875,-0.0234375 1.125,-0.0234375 0.3398437,0 0.796875,0 1.1367187,0.0234375 v -0.234375 H 8.6890676 c -0.6210937,0 -0.6210937,-0.0820313 -0.6210937,-0.26953125 z m 0,0"
         style="fill:#262626;fill-opacity:1;fill-rule:nonzero;stroke:none" />
    </g>
    <g
       id="g14"
       aria-label="0.2"
       transform="matrix(1.3333333,0,0,1.3333333,13.293483,37.533956)">
      <path
         id="path15"
         d="m 3.2808645,-1.9092559 c 0,-0.4335938 0,-2.0625 -1.453125,-2.0625 -1.46484377,0 -1.46484377,1.6289062 -1.46484377,2.0625 0,0.4335937 0,2.03906249 1.46484377,2.03906249 1.453125,0 1.453125,-1.60546879 1.453125,-2.03906249 z m -1.453125,1.83984374 c -0.2578125,0 -0.6679688,-0.1171875 -0.8085938,-0.609375 -0.09375,-0.35156254 -0.09375,-0.93750004 -0.09375,-1.30078124 0,-0.3984375 0,-0.8671875 0.0820313,-1.1835938 0.1523437,-0.5390625 0.609375,-0.6210937 0.8203125,-0.6210937 0.2695312,0 0.6679687,0.1289062 0.796875,0.5859375 0.09375,0.3164062 0.09375,0.75 0.09375,1.21875 0,0.375 0,0.98437499 -0.1054688,1.31249999 -0.1640625,0.52734375 -0.5976562,0.59765625 -0.7851562,0.59765625 z m 0,0"
         style="fill:#262626;fill-opacity:1;fill-rule:nonzero;stroke:none" />
      <path
         id="path16"
         d="m 5.141216,-0.36238091 c 0,-0.2109375 -0.1640625,-0.36328125 -0.3515625,-0.36328125 -0.2109375,0 -0.3632812,0.17578125 -0.3632812,0.36328125 0,0.19921875 0.1640625,0.3632812532 0.3632812,0.3632812532 0.1875,0 0.3515625,-0.1640625032 0.3515625,-0.3632812532 z m 0,0"
         style="fill:#262626;fill-opacity:1;fill-rule:nonzero;stroke:none" />
      <path
         id="path17"
         d="M 9.1343801,-1.1123809 H 8.9234426 c -0.023437,0.082031 -0.082031,0.46874999 -0.1640625,0.53906249 -0.046875,0.0351563 -0.5273437,0.0351563 -0.609375,0.0351563 h -1.125 L 7.7984426,-1.1592559 c 0.1992188,-0.1640625 0.7265625,-0.5390625 0.9140625,-0.7265625 0.1757813,-0.1757813 0.421875,-0.4804688 0.421875,-0.9023438 0,-0.75 -0.6679687,-1.1835937 -1.4765625,-1.1835937 -0.7617187,0 -1.3007812,0.5039062 -1.3007812,1.0664062 0,0.3046875 0.2578125,0.3398438 0.3164062,0.3398438 0.1523438,0 0.328125,-0.1054688 0.328125,-0.3164063 0,-0.140625 -0.082031,-0.328125 -0.3398437,-0.328125 0.1289062,-0.3046875 0.5039062,-0.5273437 0.9140625,-0.5273437 0.6210937,0 0.9609375,0.46875 0.9609375,0.9492187 0,0.421875 -0.28125,0.8554688 -0.703125,1.2421875 l -1.4179688,1.30078129 c -0.058594,0.0585938 -0.058594,0.0585938 -0.058594,0.2460937532 h 2.6015625 z m 0,0"
         style="fill:#262626;fill-opacity:1;fill-rule:nonzero;stroke:none" />
    </g>
    <path
       id="path18"
       d="m 1.6043551,-1.8174278 c 0.1757813,0 0.7734375,-0.011719 1.1953125,-0.1640625 0.6914063,-0.234375 0.7148438,-0.7148438 0.7148438,-0.8320313 0,-0.4453125 -0.421875,-0.703125 -0.9375,-0.703125 -0.9023438,0 -2.19140627,0.7148438 -2.19140627,2.1210938 0,0.80859374 0.4921875,1.47656249 1.37109377,1.47656249 1.2421875,0 1.9101562,-0.796875 1.9101562,-0.9140625 0,-0.0703125 -0.070312,-0.12890625 -0.1171875,-0.12890625 -0.046875,0 -0.082031,0.0234375 -0.1171875,0.0820313 -0.6328125,0.73828125 -1.5234375,0.73828125 -1.6523437,0.73828125 -0.5859375,0 -0.7617188,-0.4921875 -0.7617188,-0.93749999 0,-0.2460937 0.070312,-0.5976562 0.1054688,-0.7382812 z m -0.421875,-0.2226563 c 0.2578125,-0.9726562 0.984375,-1.2539062 1.3945313,-1.2539062 0.3164062,0 0.6210937,0.1640625 0.6210937,0.4804687 0,0.7734375 -1.3125,0.7734375 -1.640625,0.7734375 z m 0,0"
       style="fill:#262626;fill-opacity:1;fill-rule:nonzero;stroke:none"
       aria-label="e"
       transform="matrix(0,-1.3333333,1.3333333,0,7.9701121,69.775859)" />
    <path
       id="path19"
       d="m 1.6984323,-1.7824418 c 0.011719,-0.035156 0.1523437,-0.3046875 0.3867187,-0.4921875 0.070312,-0.046875 0.2460938,-0.1640625 0.515625,-0.1640625 0.058594,0 0.2460938,0 0.4101563,0.09375 -0.1640625,0.046875 -0.2460938,0.1875 -0.2460938,0.3164062 0,0.1875 0.1523438,0.234375 0.234375,0.234375 0.1757813,0 0.3515625,-0.140625 0.3515625,-0.375 0,-0.3164062 -0.3515625,-0.46875 -0.7382812,-0.46875 -0.1523438,0 -0.515625,0.011719 -0.8789063,0.4335938 -0.09375,-0.3164063 -0.4101562,-0.4335938 -0.65625,-0.4335938 -0.25781248,0 -0.39843748,0.1757813 -0.49218748,0.3164063 -0.12890625,0.2226562 -0.22265625,0.5625 -0.22265625,0.5976562 0,0.070312 0.0585938,0.09375 0.10546875,0.09375 0.09375,0 0.10546875,-0.046875 0.140625,-0.140625 0.10546875,-0.4570312 0.24609375,-0.6679687 0.44531248,-0.6679687 0.1875,0 0.2226563,0.1757812 0.2226563,0.2929687 0,0.1054688 -0.058594,0.3398438 -0.1054688,0.515625 -0.046875,0.1640625 -0.1054687,0.3984375 -0.1289062,0.5390625 -0.046875,0.14062503 -0.0820313,0.30468753 -0.11718753,0.44531253 -0.046875,0.17578125 -0.1171875,0.46875 -0.1171875,0.50390625 0,0.12890625 0.10546875,0.19921875 0.21093753,0.19921875 0.1171875,0 0.234375,-0.08203125 0.2695312,-0.19921875 0.011719,-0.046875 0.234375,-0.94921878 0.2695313,-1.08984378 z m 5.3554687,0.2109375 c 0,-0.609375 -0.46875,-1.0664063 -1.1601562,-1.0664063 -0.9023438,0 -1.78125,0.796875 -1.78125,1.6289063 0,0.64453123 0.5039062,1.06640623 1.1484375,1.06640623 0.9375,0 1.7929687,-0.80859375 1.7929687,-1.62890623 z m -1.78125,1.42968748 c -0.3398437,0 -0.6445312,-0.2109375 -0.6445312,-0.66796875 0,-0.19921873 0.09375,-0.75000003 0.3398437,-1.10156253 0.2578125,-0.3632812 0.6210938,-0.5273437 0.9140625,-0.5273437 0.3046875,0 0.6445313,0.1757812 0.6445313,0.6679687 0,0.1523438 -0.058594,0.75 -0.3867188,1.18359378 -0.1875,0.234375 -0.5273437,0.4453125 -0.8671875,0.4453125 z M 8.9171823,-2.3332231 h 0.65625 c 0.1171875,0 0.1992187,0 0.1992187,-0.1523437 0,-0.09375 -0.082031,-0.09375 -0.1875,-0.09375 H 8.975776 l 0.2109375,-0.8203125 c 0.023437,-0.09375 0.023437,-0.1289063 0.023437,-0.1289063 0,-0.1523437 -0.1171875,-0.2109375 -0.2109375,-0.2109375 -0.070312,0 -0.2226562,0.046875 -0.28125,0.234375 L 8.483588,-2.5793168 H 7.8390573 c -0.1171875,0 -0.1289063,0.011719 -0.1523438,0.023437 -0.023437,0.023437 -0.046875,0.1054687 -0.046875,0.1289062 0.011719,0.09375 0.070312,0.09375 0.1875,0.09375 h 0.5976563 l -0.3515625,1.40625003 c -0.035156,0.140625 -0.082031,0.33984375 -0.082031,0.41015625 0,0.3515625 0.3164063,0.57421875 0.6796875,0.57421875 0.6796875,0 1.0898438,-0.8203125 1.0898438,-0.9140625 0,-0.0234375 -0.011719,-0.09375 -0.1171875,-0.09375 -0.070312,0 -0.082031,0.0351563 -0.1171875,0.10546875 -0.1992188,0.4453125 -0.5390625,0.703125 -0.8320313,0.703125 -0.2226562,0 -0.234375,-0.22265625 -0.234375,-0.29296875 0,-0.0820312 0,-0.09375 0.035156,-0.2109375 z m 0,0"
       style="fill:#262626;fill-opacity:1;fill-rule:nonzero;stroke:none"
       aria-label="r&#10;ot"
       transform="matrix(0,-1.3333333,1.3333333,0,9.2984641,64.538014)" />
    <path
       id="path20"
       d="M 2.157171,1.9911659 V 1.6278847 H 1.360296 V -5.6143028 H 2.157171 V -5.9775841 H 0.98529599 v 7.96875 z m 2.8183594,-7.4296875 v 0.2578125 c 0.5390625,0 0.5976562,0.058594 0.5976562,0.4453125 v 1.6875 c -0.2695312,-0.3046875 -0.6445312,-0.46875 -1.0664062,-0.46875 -0.9960938,0 -1.875,0.7734375 -1.875,1.8046875 0,0.97265629 0.796875,1.79296879 1.7929687,1.79296879 0.4804688,0 0.8671875,-0.22265625 1.125,-0.50390625 v 0.50390625 l 1.21875,-0.08203125 v -0.2578125 c -0.5507812,0 -0.609375,-0.0585938 -0.609375,-0.45703125 V -5.5322716 Z m 0.5742187,4.45312504 c 0,0.140625 0,0.17578125 -0.1171875,0.328125 -0.2226562,0.31640625 -0.5859375,0.515625 -0.9609375,0.515625 -0.3632812,0 -0.6914062,-0.19921875 -0.8789062,-0.4921875 -0.2109375,-0.3046875 -0.2578125,-0.70312504 -0.2578125,-1.07812504 0,-0.4570312 0.070312,-0.7851562 0.2578125,-1.0664062 0.1875,-0.2929688 0.5507812,-0.515625 0.9609375,-0.515625 0.375,0 0.7617187,0.1875 0.9960937,0.609375 z M 10.345648,-1.8174278 c 0.175781,0 0.222656,0 0.222656,-0.1875 0,-0.703125 -0.386719,-1.546875 -1.511719,-1.546875 -0.9960937,0 -1.7695312,0.8203125 -1.7695312,1.8046875 0,1.03124999 0.8671875,1.82812499 1.875,1.82812499 1.0078122,0 1.4062502,-0.85546875 1.4062502,-1.04296875 0,-0.0234375 -0.02344,-0.10546874 -0.128906,-0.10546874 -0.08203,0 -0.105469,0.058594 -0.117188,0.10546874 -0.292969,0.7734375 -0.9726562,0.796875 -1.1132812,0.796875 -0.3632813,0 -0.7265625,-0.17578125 -0.9726563,-0.5390625 C 8.0018975,-1.0674278 8.0018975,-1.5830528 8.0018975,-1.8174278 Z M 8.0136163,-2.0283653 c 0.070312,-1.1132813 0.75,-1.3007813 1.0429687,-1.3007813 0.9257813,0 0.960938,1.125 0.972656,1.3007813 z m 4.1835937,1.47656249 c -0.246094,-0.0234375 -0.445312,-0.234375 -0.445312,-0.52734379 0,-0.1875 0.04687,-0.2578125 0.09375,-0.328125 0.339843,0.1992188 0.644531,0.234375 0.84375,0.234375 0.785156,0 1.371093,-0.5507812 1.371093,-1.171875 0,-0.3046875 -0.140625,-0.5625 -0.328125,-0.7617187 0.105469,-0.09375 0.375,-0.2695313 0.761719,-0.2695313 -0.03516,0.023437 -0.07031,0.058594 -0.07031,0.1875 0,0.140625 0.105468,0.2460938 0.246093,0.2460938 0.117188,0 0.246094,-0.070312 0.246094,-0.2578125 0,-0.1289063 -0.105469,-0.3984375 -0.457031,-0.3984375 -0.128906,0 -0.515625,0.023437 -0.878906,0.3632812 -0.199219,-0.140625 -0.515625,-0.28125 -0.890625,-0.28125 -0.785157,0 -1.359375,0.5507813 -1.359375,1.171875 0,0.375 0.199218,0.65625 0.363281,0.8085938 -0.164063,0.1992187 -0.234375,0.4570312 -0.234375,0.65624999 0,0.31640625 0.164062,0.5625 0.339844,0.703125 -0.421875,0.1171875 -0.75,0.421875 -0.75,0.78515625 0,0.57421876 0.820312,1.01953126 1.875,1.01953126 0.996093,0 1.875,-0.3984375 1.875,-1.03125001 0,-0.43359375 -0.257813,-0.76171875 -0.515625,-0.90234375 -0.46875,-0.24609375 -0.867188,-0.24609375 -1.640625,-0.24609375 z m 0.492188,-0.85546879 c -0.738282,0 -0.738282,-0.7617187 -0.738282,-0.9375 0,-0.2929687 0.04687,-0.5039062 0.164063,-0.65625 0.128906,-0.1875 0.351562,-0.28125 0.574219,-0.28125 0.738281,0 0.738281,0.7617188 0.738281,0.9375 0,0.2929688 -0.03516,0.5039063 -0.164063,0.6679688 -0.175781,0.2226562 -0.421875,0.2695312 -0.574218,0.2695312 z m 0.375,1.37109379 c 0.222656,0 1.265625,0 1.265625,0.64453125 0,0.42187496 -0.609375,0.79687496 -1.40625,0.79687496 -0.796875,0 -1.394532,-0.375 -1.394532,-0.79687496 0,-0.17578125 0.117188,-0.64453125 0.773438,-0.64453125 z m 3.342773,-5.94140629 h -1.171875 v 0.3632813 h 0.796875 v 7.2421875 h -0.796875 v 0.3632812 h 1.171875 z m 0,0"
       style="fill:#262626;fill-opacity:1;fill-rule:nonzero;stroke:none"
       aria-label="[deg]"
       transform="matrix(0,-1.3333333,1.3333333,0,7.9701121,46.548103)" />
    <path
       id="path21"
       d="m 26.446081,27.323997 3.161869,2.720713 3.16187,2.689613 3.16187,1.75253 3.161869,1.98873 3.16187,1.418974 3.16187,1.64936 3.161869,1.515234 3.16187,0.699571 3.16187,1.293522 3.161869,1.550364 3.16187,0.786525 3.16187,1.296284 3.161869,0.944686 3.16187,0.855571 3.16187,0.879579 3.161869,1.182954 3.16187,0.600899 3.16187,1.27075 3.161869,0.85601 3.16187,0.664669 3.16187,0.904002 3.161869,1.112328 3.16187,1.033422 3.161867,0.201967 3.16187,1.058488 3.16187,-0.280088 3.16187,1.104849 3.16187,0.885984 3.16187,1.528379 3.16187,-0.255579 3.16187,0.938606"
       style="fill:none;stroke:#023eff;stroke-width:1;stroke-linecap:butt;stroke-linejoin:round;stroke-miterlimit:10;stroke-dasharray:6.4, 1.6, 1, 1.6;stroke-dashoffset:0;stroke-opacity:1"
       transform="matrix(1.3333333,0,0,-1.3333333,0,100.77934)"
       clip-path="url(#clipPath22)" />
    <path
       id="path23"
       d="m 26.446081,24.636706 3.161869,2.377415 3.16187,1.918265 3.16187,1.491158 3.161869,1.963618 3.16187,1.022712 3.16187,1.398635 3.161869,1.354657 3.16187,0.824183 3.16187,1.130603 3.161869,0.813836 3.16187,1.051694 3.16187,0.738785 3.161869,1.260066 3.16187,0.415753 3.16187,0.890265 3.161869,0.690626 3.16187,0.569954 3.16187,0.934751 3.161869,1.370897 3.16187,0.57857 3.16187,0.685192 3.161869,0.725424 3.16187,0.885758 3.161867,0.170559 3.16187,0.657094 3.16187,0.320232 3.16187,1.284096 3.16187,0.781822 3.16187,0.409121 3.16187,0.341158 3.16187,0.940728"
       style="fill:none;stroke:#ff7c00;stroke-width:1;stroke-linecap:butt;stroke-linejoin:round;stroke-miterlimit:10;stroke-dasharray:3.7, 1.6;stroke-dashoffset:0;stroke-opacity:1"
       transform="matrix(1.3333333,0,0,-1.3333333,0,100.77934)"
       clip-path="url(#clipPath24)" />
    <path
       id="path25"
       d="M 21.545183,17.28353 V 64.049702"
       style="fill:none;stroke:#262626;stroke-width:0.6;stroke-linecap:square;stroke-linejoin:miter;stroke-miterlimit:10;stroke-dasharray:none;stroke-opacity:1"
       transform="matrix(1.3333333,0,0,-1.3333333,0,100.77934)" />
    <path
       id="path26"
       d="M 129.36494,17.28353 V 64.049702"
       style="fill:none;stroke:#262626;stroke-width:0.6;stroke-linecap:square;stroke-linejoin:miter;stroke-miterlimit:10;stroke-dasharray:none;stroke-opacity:1"
       transform="matrix(1.3333333,0,0,-1.3333333,0,100.77934)" />
    <path
       id="path27"
       d="M 21.545183,17.28353 H 129.36494"
       style="fill:none;stroke:#262626;stroke-width:0.6;stroke-linecap:square;stroke-linejoin:miter;stroke-miterlimit:10;stroke-dasharray:none;stroke-opacity:1"
       transform="matrix(1.3333333,0,0,-1.3333333,0,100.77934)" />
    <path
       id="path28"
       d="M 21.545183,64.049702 H 129.36494"
       style="fill:none;stroke:#262626;stroke-width:0.6;stroke-linecap:square;stroke-linejoin:miter;stroke-miterlimit:10;stroke-dasharray:none;stroke-opacity:1"
       transform="matrix(1.3333333,0,0,-1.3333333,0,100.77934)" />
    <path
       id="path29"
       d="m 1.465694,-1.8170283 c 0,-0.5976563 0.2460938,-1.453125 1.0078125,-1.4765625 -0.046875,0.035156 -0.1171875,0.09375 -0.1171875,0.28125 0,0.2460937 0.1875,0.3632812 0.3515625,0.3632812 0.1875,0 0.3515625,-0.1289062 0.3515625,-0.3632812 0,-0.28125 -0.2578125,-0.5039063 -0.609375,-0.5039063 -0.515625,0 -0.8671875,0.3867188 -1.03125,0.84375 H 1.4071 v -0.84375 l -1.125,0.09375 v 0.2578125 c 0.5390625,0 0.59765625,0.058594 0.59765625,0.4453125 v 2.09765629 c 0,0.36328125 -0.09375,0.36328125 -0.59765625,0.36328125 V -6.220569e-4 C 0.5867875,-0.02405956 1.0321,-0.02405956 1.2196,-0.02405956 c 0.46875,0 0.4921875,0 1.0078125,0.0234375031 V -0.25843456 H 2.0633503 c -0.5859375,0 -0.5976563,-0.09375 -0.5976563,-0.375 z m 5.8183594,0.1171875 c 0,-0.9960938 -0.8203125,-1.8515625 -1.875,-1.8515625 -1.0546875,0 -1.875,0.8554687 -1.875,1.8515625 0,0.99609374 0.8554688,1.78124999 1.875,1.78124999 1.03125,0 1.875,-0.78515625 1.875,-1.78124999 z m -1.875,1.53515624 c -0.4335937,0 -0.7617187,-0.2109375 -0.9375,-0.4921875 -0.1992187,-0.328125 -0.2226562,-0.71484374 -0.2226562,-1.11328124 0,-0.3046875 0,-0.7851563 0.2460937,-1.125 0.2109375,-0.28125 0.5390625,-0.4335938 0.9140625,-0.4335938 0.421875,0 0.7617188,0.1992188 0.9375,0.4804688 0.2226563,0.328125 0.2226563,0.7617187 0.2226563,1.078125 0,0.3632812 -0.011719,0.80859374 -0.234375,1.13671874 -0.2109375,0.31640625 -0.5742188,0.46875 -0.9257813,0.46875 z M 9.0096394,-3.1764033 H 10.204952 V -3.4342158 H 9.0096394 V -4.8990596 H 8.7635456 c 0,0.7265625 -0.328125,1.4765625 -1.0664062,1.5 v 0.2226563 h 0.7148437 v 2.17968749 c 0,0.9375 0.7148438,1.078125 1.078125,1.078125 0.5390629,0 0.8554689,-0.48046875 0.8554689,-1.078125 V -1.4420283 h -0.246094 v 0.4335937 c 0,0.55078129 -0.2460936,0.84375004 -0.5507811,0.84375004 -0.5390625,0 -0.5390625,-0.69140625 -0.5390625,-0.8203125 z m 5.1650386,0.796875 c 0,-0.7734375 -0.761718,-1.171875 -1.488281,-1.171875 -0.65625,0 -1.253906,0.2460937 -1.253906,0.7734375 0,0.2460937 0.175781,0.3867187 0.375,0.3867187 0.222656,0 0.375,-0.1640625 0.375,-0.375 0,-0.1875 -0.117188,-0.328125 -0.292969,-0.3632812 0.292969,-0.1992188 0.726563,-0.1992188 0.785156,-0.1992188 0.445313,0 0.890625,0.3046875 0.890625,0.9609375 v 0.2460938 c -0.46875,0.023437 -0.996093,0.046875 -1.558593,0.28125 -0.703125,0.3046875 -0.832032,0.7617187 -0.832032,1.03124999 0,0.6796875 0.808594,0.890625 1.359375,0.890625 0.574219,0 0.9375,-0.328125 1.113282,-0.64453125 0.03516,0.3046875 0.246093,0.59765625 0.597656,0.59765625 0.08203,0 0.75,-0.0234375 0.75,-0.75 V -1.1607783 h -0.246094 v 0.44531249 c 0,0.328125 -0.117187,0.45703125 -0.28125,0.45703125 -0.292969,0 -0.292969,-0.375 -0.292969,-0.45703125 z m -0.609375,1.2539062 c 0,0.77343754 -0.65625,0.98437504 -0.972656,0.98437504 -0.410156,0 -0.761719,-0.28125 -0.761719,-0.66796875 0,-0.52734379 0.492188,-1.06640629 1.734375,-1.10156249 z m 2.967774,-2.0507812 h 1.195312 v -0.2578125 h -1.195312 v -1.4648438 h -0.246094 c 0,0.7265625 -0.328125,1.4765625 -1.066406,1.5 v 0.2226563 h 0.714844 v 2.17968749 c 0,0.9375 0.714843,1.078125 1.078125,1.078125 0.539062,0 0.855468,-0.48046875 0.855468,-1.078125 V -1.4420283 h -0.246093 v 0.4335937 c 0,0.55078129 -0.246094,0.84375004 -0.550782,0.84375004 -0.539062,0 -0.539062,-0.69140625 -0.539062,-0.8203125 z m 3.37207,-1.734375 c 0,-0.234375 -0.1875,-0.4453125 -0.445312,-0.4453125 -0.234375,0 -0.445313,0.1875 -0.445313,0.4335937 0,0.28125 0.234375,0.4570313 0.445313,0.4570313 0.269531,0 0.445312,-0.234375 0.445312,-0.4453125 z m -1.195312,1.4882812 v 0.2578125 c 0.503906,0 0.574218,0.046875 0.574218,0.4335938 v 2.10937499 c 0,0.36328125 -0.09375,0.36328125 -0.597656,0.36328125 v 0.2578125031 c 0.304688,-0.0234375031 0.75,-0.0234375031 0.867188,-0.0234375031 0.105468,0 0.585937,0 0.867187,0.0234375031 V -0.25843456 c -0.515625,0 -0.550781,-0.046875 -0.550781,-0.3515625 V -3.5162471 Z m 5.973632,1.7226563 c 0,-0.9960938 -0.820312,-1.8515625 -1.875,-1.8515625 -1.054687,0 -1.875,0.8554687 -1.875,1.8515625 0,0.99609374 0.855469,1.78124999 1.875,1.78124999 1.03125,0 1.875,-0.78515625 1.875,-1.78124999 z m -1.875,1.53515624 c -0.433593,0 -0.761718,-0.2109375 -0.9375,-0.4921875 -0.199218,-0.328125 -0.222656,-0.71484374 -0.222656,-1.11328124 0,-0.3046875 0,-0.7851563 0.246094,-1.125 0.210937,-0.28125 0.539062,-0.4335938 0.914062,-0.4335938 0.421875,0 0.761719,0.1992188 0.9375,0.4804688 0.222657,0.328125 0.222657,0.7617187 0.222657,1.078125 0,0.3632812 -0.01172,0.80859374 -0.234375,1.13671874 -0.210938,0.31640625 -0.574219,0.46875 -0.925782,0.46875 z m 5.988282,-2.25000004 c 0,-0.6679687 -0.292969,-1.1015625 -1.136719,-1.1015625 -0.785156,0 -1.148438,0.5742188 -1.242188,0.7617188 h -0.01172 v -0.7617188 l -1.148438,0.09375 v 0.2578125 c 0.539063,0 0.609375,0.058594 0.609375,0.4453125 v 2.09765629 c 0,0.36328125 -0.105469,0.36328125 -0.609375,0.36328125 V -6.220569e-4 C 25.59753,-0.02405956 25.949092,-0.02405956 26.16003,-0.02405956 c 0.234375,0 0.574219,0 0.914062,0.0234375031 V -0.25843456 c -0.515625,0 -0.609375,0 -0.609375,-0.36328125 V -2.0631221 c 0,-0.84375 0.644532,-1.2304687 1.125,-1.2304687 0.492188,0 0.609375,0.3398437 0.609375,0.84375 v 1.82812499 c 0,0.36328125 -0.09375,0.36328125 -0.609375,0.36328125 V -6.220569e-4 C 27.929561,-0.02405956 28.281124,-0.02405956 28.50378,-0.02405956 c 0.222656,0 0.5625,0 0.902344,0.0234375031 V -0.25843456 c -0.503907,0 -0.609375,0 -0.609375,-0.36328125 z m 0,0"
       style="fill:#262626;fill-opacity:1;fill-rule:nonzero;stroke:none"
       aria-label="rotation"
       transform="matrix(1.3333333,0,0,1.3333333,80.842616,7.3797357)" />
    <path
       id="path30"
       d="m 66.14722,34.923427 h 9"
       style="fill:none;stroke:#023eff;stroke-width:1;stroke-linecap:butt;stroke-linejoin:round;stroke-miterlimit:10;stroke-dasharray:6.4, 1.6, 1, 1.6;stroke-dashoffset:0;stroke-opacity:1"
       transform="matrix(1.3333333,0,0,-1.3333333,0,100.77934)" />
    <path
       id="path31"
       d="m 1.6650849,-3.9954514 c -0.070312,-0.082031 -0.070312,-0.082031 -0.1992188,-0.082031 h -1.078125 v 0.234375 h 0.1875 c 0.140625,0 0.29296875,0 0.41015625,0.023437 0.0351564,0.011719 0.0351564,0.011719 0.0351564,0.1171875 v 3.04687497 c 0,0.15234375 0,0.421875 -0.63281255,0.421875 V 6.423652e-4 C 0.50492865,-0.01107638 0.8916474,-0.02279513 1.1377412,-0.02279513 c 0.2812499,0 0.6562499,0.01171875 0.7617188,0.0234374952 V -0.23373263 c -0.6328125,0 -0.6328125,-0.26953125 -0.6328125,-0.421875 V -3.6438889 l 2.8125,3.57421877 c 0.046875,0.05859375 0.046875,0.0703124952 0.1289062,0.0703124952 0.1171875,0 0.1171875,-0.0585937452 0.1171875,-0.1757812452 V -3.4212326 c 0,-0.1523438 0,-0.421875 0.6328125,-0.421875 v -0.234375 c -0.1054687,0 -0.5039062,0.023437 -0.75,0.023437 -0.2695312,0 -0.65625,-0.023437 -0.7617187,-0.023437 v 0.234375 c 0.6328125,0 0.6328125,0.2695312 0.6328125,0.421875 v 2.49609372 z m 8.3085937,2.4023438 H 9.7510224 c -0.1640625,0.92578122 -0.328125,1.35937497 -1.4648438,1.35937497 H 7.2666474 c -0.2929688,0 -0.2929688,-0.046875 -0.2929688,-0.234375 V -1.9915451 h 0.6445313 c 0.609375,0 0.7265625,0.1640625 0.7265625,0.703125 H 8.5674286 V -2.9173264 H 8.3447724 c 0,0.5390625 -0.1171875,0.6914063 -0.7265625,0.6914063 H 6.9736786 v -1.3710938 c 0,-0.1757812 0,-0.2226562 0.2929688,-0.2226562 h 0.9609375 c 0.9960937,0 1.2070312,0.28125 1.3242187,1.1601562 h 0.2226563 l -0.1875,-1.3945312 h -3.84375 v 0.234375 h 0.1523437 c 0.4804688,0 0.4804688,0.070312 0.4804688,0.2695312 v 3.04687502 c 0,0.19921875 0,0.26953125 -0.4804688,0.26953125 H 5.7432099 V 6.423652e-4 h 3.9492187 z m 4.9951174,-2.4492188 c 0,-0.09375 0,-0.1640625 -0.09375,-0.1640625 -0.05859,0 -0.07031,0.023437 -0.105469,0.082031 l -0.328125,0.4453125 c -0.351562,-0.3398438 -0.820312,-0.5273438 -1.3125,-0.5273438 -1.324219,0 -2.414062,0.984375 -2.414062,2.1679688 0,1.19531247 1.089843,2.16796872 2.414062,2.16796872 1.101563,0 1.839844,-0.7734375 1.839844,-1.52343752 0,-0.070312 -0.01172,-0.1289062 -0.117188,-0.1289062 -0.09375,0 -0.09375,0.046875 -0.105468,0.1054687 -0.04687,0.91406252 -0.878907,1.31250002 -1.535157,1.31250002 -0.714843,0 -1.828125,-0.421875 -1.828125,-1.93359372 0,-1.4882813 1.078125,-1.9335938 1.816407,-1.9335938 0.679687,0 1.382812,0.4570313 1.523437,1.3710938 0.02344,0.082031 0.02344,0.1171875 0.128906,0.1171875 0.117188,0 0.117188,-0.046875 0.117188,-0.1640625 z m 0,0"
       style="fill:#262626;fill-opacity:1;fill-rule:nonzero;stroke:none"
       aria-label="NEC"
       transform="matrix(1.3333333,0,0,1.3333333,106.59629,57.014769)" />
    <path
       id="path32"
       d="m 66.14722,26.277926 h 9"
       style="fill:none;stroke:#ff7c00;stroke-width:1;stroke-linecap:butt;stroke-linejoin:round;stroke-miterlimit:10;stroke-dasharray:3.7, 1.6;stroke-dashoffset:0;stroke-opacity:1"
       transform="matrix(1.3333333,0,0,-1.3333333,0,100.77934)" />
    <path
       id="path33"
       d="m 1.6299286,-1.8391947 h 1.21875 c 0.7734375,0 1.5703125,-0.4570312 1.5703125,-1.1015625 0,-0.6210937 -0.7382812,-1.1367187 -1.6289062,-1.1367187 H 0.39945985 v 0.234375 H 0.5518036 c 0.4804688,0 0.4804688,0.070312 0.4804688,0.2695312 v 3.0703125 c 0,0.19921875 0,0.26953125 -0.4804688,0.26953125 H 0.39945985 V 6.49054e-4 C 0.4814911,-0.0110697 1.0791474,-0.02278845 1.3369599,-0.02278845 c 0.2460937,0 0.8320312,0.01171875 0.9257812,0.023437504 V -0.23372595 H 2.1103974 c -0.4804688,0 -0.4804688,-0.0703125 -0.4804688,-0.26953125 z m 1.0078125,-2.0039062 c 0.9375,0 1.1132813,0.4335937 1.1132813,0.9023437 0,0.3632813 -0.082031,0.9023438 -1.1132813,0.9023438 h -1.03125 v -1.5820313 c 0,-0.1757812 0,-0.2226562 0.2929688,-0.2226562 z m 3.9169922,-0.1523438 c -0.070312,-0.082031 -0.070312,-0.082031 -0.1992188,-0.082031 h -1.078125 v 0.234375 h 0.1875 c 0.140625,0 0.2929688,0 0.4101563,0.023437 0.035156,0.011719 0.035156,0.011719 0.035156,0.1171875 v 3.04687495 c 0,0.15234375 0,0.421875 -0.6328125,0.421875 V 6.49054e-4 c 0.1171875,-0.011718754 0.5039063,-0.023437504 0.75,-0.023437504 0.28125,0 0.65625,0.01171875 0.7617188,0.023437504 V -0.23372595 c -0.6328125,0 -0.6328125,-0.26953125 -0.6328125,-0.421875 V -3.6438822 l 2.8125,3.57421875 c 0.046875,0.05859375 0.046875,0.070312504 0.1289062,0.070312504 0.1171875,0 0.1171875,-0.058593754 0.1171875,-0.175781254 v -3.2460937 c 0,-0.1523438 0,-0.421875 0.6328125,-0.421875 v -0.234375 c -0.1054687,0 -0.5039062,0.023437 -0.75,0.023437 -0.2695312,0 -0.65625,-0.023437 -0.7617187,-0.023437 v 0.234375 c 0.6328125,0 0.6328125,0.2695312 0.6328125,0.421875 v 2.4960937 z m 8.3085937,2.4023438 h -0.222656 c -0.164063,0.9257812 -0.328125,1.35937495 -1.464844,1.35937495 h -1.019531 c -0.292969,0 -0.292969,-0.046875 -0.292969,-0.234375 V -1.9915384 h 0.644531 c 0.609375,0 0.726563,0.1640625 0.726563,0.703125 h 0.222656 v -1.6289063 h -0.222656 c 0,0.5390625 -0.117188,0.6914063 -0.726563,0.6914063 h -0.644531 v -1.3710938 c 0,-0.1757812 0,-0.2226562 0.292969,-0.2226562 h 0.960937 c 0.996094,0 1.207032,0.28125 1.324219,1.1601562 h 0.222656 l -0.1875,-1.3945312 h -3.84375 v 0.234375 h 0.152344 c 0.480469,0 0.480469,0.070312 0.480469,0.2695312 v 3.046875 c 0,0.19921875 0,0.26953125 -0.480469,0.26953125 H 10.632858 V 6.49054e-4 h 3.949219 z m 4.995117,-2.4492188 c 0,-0.09375 0,-0.1640625 -0.09375,-0.1640625 -0.05859,0 -0.07031,0.023437 -0.105469,0.082031 L 19.3311,-3.6790384 c -0.351562,-0.3398438 -0.820312,-0.5273438 -1.3125,-0.5273438 -1.324218,0 -2.414062,0.984375 -2.414062,2.1679688 0,1.19531245 1.089844,2.1679687 2.414062,2.1679687 1.101563,0 1.839844,-0.7734375 1.839844,-1.5234375 0,-0.070312 -0.01172,-0.1289062 -0.117187,-0.1289062 -0.09375,0 -0.09375,0.046875 -0.105469,0.1054687 -0.04687,0.9140625 -0.878906,1.3125 -1.535156,1.3125 -0.714844,0 -1.828125,-0.421875 -1.828125,-1.9335937 0,-1.4882813 1.078125,-1.9335938 1.816406,-1.9335938 0.679687,0 1.382812,0.4570313 1.523437,1.3710938 0.02344,0.082031 0.02344,0.1171875 0.128907,0.1171875 0.117187,0 0.117187,-0.046875 0.117187,-0.1640625 z m 5.34668,5.390625 c -0.65625,-0.50390625 -1.195313,-1.44140625 -1.195313,-2.8359375 0,-1.3828125 0.527344,-2.34375 1.195313,-2.8476562 0,-0.011719 0.02344,-0.035156 0.02344,-0.058594 0,-0.035156 -0.03516,-0.082031 -0.105468,-0.082031 -0.105469,0 -1.546875,0.9375 -1.546875,2.9882812 0,2.0390625 1.441406,2.9765625 1.546875,2.9765625 0.07031,0 0.105468,-0.046875 0.105468,-0.082031 0,-0.023437 -0.02344,-0.046875 -0.02344,-0.058594 z m 5.604492,-3.375 c 0,-1.171875 -1.019531,-2.1796875 -2.320312,-2.1796875 -1.300782,0 -2.320313,1.0078125 -2.320313,2.1796875 0,1.18359375 1.03125,2.15625 2.320313,2.15625 1.289062,0 2.320312,-0.97265625 2.320312,-2.15625 z m -2.320312,1.93359375 c -0.773438,0 -1.652344,-0.59765625 -1.652344,-2.02734375 0,-1.3359375 0.890625,-1.875 1.652344,-1.875 0.761718,0 1.652343,0.5507813 1.652343,1.875 0,1.4296875 -0.878906,2.02734375 -1.652343,2.02734375 z M 33.58696,-2.5657572 v 0.234375 c 0.421875,0 0.480469,0.035156 0.480469,0.328125 v 0.9960938 c 0,0.5507812 -0.375,0.8789062 -0.84375,0.8789062 -0.5625,0 -0.585938,-0.2578125 -0.585938,-0.55078125 V -2.6360697 l -0.972656,0.070312 v 0.234375 c 0.46875,0 0.46875,0.046875 0.46875,0.3984375 v 0.9375 c 0,0.41015625 0,0.66796875 0.269531,0.8671875 0.234375,0.1640625 0.527344,0.1875 0.785156,0.1875 0.375,0 0.691407,-0.15234375 0.902344,-0.4921875 v 0.4921875 l 0.9375,-0.058593746 V -0.23372595 c -0.410156,0 -0.46875,-0.0351563 -0.46875,-0.328125 V -2.6360697 Z m 3.026367,1.2304688 c 0,-0.5625 0.292969,-1.1015625 0.820313,-1.1132813 -0.05859,0.058594 -0.08203,0.1289063 -0.08203,0.2109375 0,0.1640625 0.128907,0.28125 0.28125,0.28125 0.164063,0 0.28125,-0.1171875 0.28125,-0.28125 0,-0.2460937 -0.222656,-0.3984375 -0.480468,-0.3984375 -0.363282,0 -0.667969,0.2109375 -0.855469,0.6210938 v -0.6210938 l -0.902344,0.070312 v 0.234375 c 0.410156,0 0.46875,0.035156 0.46875,0.328125 v 1.51171875 c 0,0.2578125 -0.05859,0.2578125 -0.46875,0.2578125 V 6.49054e-4 c 0.140625,-0.011718754 0.585938,-0.023437504 0.714844,-0.023437504 0.316406,0 0.726562,0.01171875 0.808594,0.023437504 V -0.23372595 H 37.07036 c -0.445312,0 -0.457031,-0.0585938 -0.457031,-0.2578125 z m 4.013672,-1.1601563 c 0,-0.1054687 0,-0.1640625 -0.105469,-0.1640625 -0.02344,0 -0.03516,0 -0.128906,0.070312 -0.01172,0.011719 -0.01172,0.011719 -0.105469,0.082031 -0.222656,-0.1523438 -0.527344,-0.1523438 -0.65625,-0.1523438 -0.9375,0 -1.113281,0.46875 -1.113281,0.7382813 0,0.5859375 0.703125,0.6914062 1.160156,0.7734375 0.269531,0.035156 0.785156,0.1171875 0.785156,0.51562495 0,0.234375 -0.175781,0.50390625 -0.785156,0.50390625 -0.574219,0 -0.808594,-0.33984375 -0.9375,-0.78515625 -0.01172,-0.0585938 -0.02344,-0.09375 -0.105469,-0.09375 -0.117187,0 -0.117187,0.0585937 -0.117187,0.17578125 v 0.7265625 c 0,0.09375 0,0.1640625 0.09375,0.1640625 0.03516,0 0.04687,0 0.152344,-0.1171875 l 0.140625,-0.140625 c 0.292968,0.2578125 0.65625,0.2578125 0.773437,0.2578125 0.878906,0 1.113281,-0.48046875 1.113281,-0.83203125 0,-0.234375 -0.117187,-0.4101563 -0.246093,-0.5273438 -0.257813,-0.2226562 -0.492188,-0.2695312 -0.855469,-0.328125 -0.445313,-0.070312 -0.84375,-0.140625 -0.84375,-0.4453125 0,-0.1757812 0.164062,-0.421875 0.785156,-0.421875 0.421875,0 0.738281,0.1640625 0.773438,0.5859375 0,0.070312 0.01172,0.1289063 0.105468,0.1289063 0.117188,0 0.117188,-0.058594 0.117188,-0.1757813 z m 2.604492,1.0078125 c 0,-2.0507812 -1.441406,-2.9882812 -1.558594,-2.9882812 -0.07031,0 -0.08203,0.046875 -0.08203,0.082031 0,0.035156 0,0.035156 0.105469,0.1289063 0.539062,0.46875 1.101562,1.3476562 1.101562,2.7773437 0,1.265625 -0.445312,2.21484375 -1.125,2.7773438 -0.08203,0.082031 -0.08203,0.082031 -0.08203,0.1171875 0,0.035156 0.01172,0.082031 0.08203,0.082031 0.117188,0 1.558594,-0.9375 1.558594,-2.9765625 z m 0,0"
       style="fill:#262626;fill-opacity:1;fill-rule:nonzero;stroke:none"
       aria-label="PNEC(Ours)"
       transform="matrix(1.3333333,0,0,1.3333333,106.59629,68.542103)" />
  </g>
</svg>
