<?xml version="1.0" encoding="UTF-8" standalone="no"?>
<!-- Created with Inkscape (http://www.inkscape.org/) -->

<svg
   version="1.1"
   id="svg1"
   width="170.27565"
   height="100.77934"
   viewBox="0 0 170.27565 100.77934"
   sodipodi:docname="pin_mean_t.pdf"
   xmlns:inkscape="http://www.inkscape.org/namespaces/inkscape"
   xmlns:sodipodi="http://sodipodi.sourceforge.net/DTD/sodipodi-0.dtd"
   xmlns="http://www.w3.org/2000/svg"
   xmlns:svg="http://www.w3.org/2000/svg">
  <defs
     id="defs1">
    <clipPath
       clipPathUnits="userSpaceOnUse"
       id="clipPath16">
      <path
         d="M 15.623024,17.28353 H 127.70673 V 64.049702 H 15.623024 Z"
         id="path16" />
    </clipPath>
    <clipPath
       clipPathUnits="userSpaceOnUse"
       id="clipPath18">
      <path
         d="M 15.623024,17.28353 H 127.70673 V 64.049702 H 15.623024 Z"
         id="path18" />
    </clipPath>
  </defs>
  <sodipodi:namedview
     id="namedview1"
     pagecolor="#ffffff"
     bordercolor="#000000"
     borderopacity="0.25"
     inkscape:showpageshadow="2"
     inkscape:pageopacity="0.0"
     inkscape:pagecheckerboard="0"
     inkscape:deskcolor="#d1d1d1">
    <inkscape:page
       x="0"
       y="0"
       inkscape:label="1"
       id="page1"
       width="170.27565"
       height="100.77934"
       margin="0"
       bleed="0" />
  </sodipodi:namedview>
  <g
     id="g1"
     inkscape:groupmode="layer"
     inkscape:label="1">
    <path
       id="path1"
       d="M 0,0 H 127.70673 V 75.584504 H 0 Z"
       style="fill:#ffffff;fill-opacity:1;fill-rule:nonzero;stroke:none"
       transform="matrix(1.3333333,0,0,-1.3333333,0,100.77934)" />
    <path
       id="path2"
       d="M 15.623024,17.28353 H 127.70673 V 64.049702 H 15.623024 Z"
       style="fill:#ffffff;fill-opacity:1;fill-rule:nonzero;stroke:none"
       transform="matrix(1.3333333,0,0,-1.3333333,0,100.77934)" />
    <path
       id="path3"
       d="m 3.2803956,-1.9091099 c 0,-0.4335937 0,-2.0625 -1.453125,-2.0625 -1.46484372,0 -1.46484372,1.6289063 -1.46484372,2.0625 0,0.4335938 0,2.03906252 1.46484372,2.03906252 1.453125,0 1.453125,-1.60546872 1.453125,-2.03906252 z m -1.453125,1.83984377 c -0.2578125,0 -0.6679687,-0.1171875 -0.8085937,-0.609375 -0.09375,-0.35156247 -0.09375,-0.93749997 -0.09375,-1.30078127 0,-0.3984375 0,-0.8671875 0.0820312,-1.1835937 0.1523438,-0.5390625 0.609375,-0.6210938 0.8203125,-0.6210938 0.2695313,0 0.6679688,0.1289063 0.796875,0.5859375 0.09375,0.3164063 0.09375,0.75 0.09375,1.21875 0,0.375 0,0.98437502 -0.1054687,1.31250002 -0.1640625,0.52734375 -0.5976563,0.59765625 -0.7851563,0.59765625 z m 0,0"
       style="fill:#262626;fill-opacity:1;fill-rule:nonzero;stroke:none"
       aria-label="0"
       transform="matrix(1.3333333,0,0,1.3333333,20.805827,85.936105)" />
    <path
       id="path4"
       d="m 2.1452534,-3.7958286 c 0,-0.1757813 -0.023437,-0.1757813 -0.1992187,-0.1757813 -0.3984375,0.375 -1.00781254,0.375 -1.21875004,0.375 v 0.234375 c 0.15234375,0 0.55078124,0 0.90234374,-0.1640625 v 3.02343752 c 0,0.1875 0,0.26953125 -0.609375,0.26953125 H 0.76244091 v 0.234375 c 0.32812499,-0.0234375 0.79687499,-0.0234375 1.12499999,-0.0234375 0.3398438,0 0.796875,0 1.1367188,0.0234375 v -0.234375 H 2.7663472 c -0.6210938,0 -0.6210938,-0.0820312 -0.6210938,-0.26953125 z m 0,0"
       style="fill:#262626;fill-opacity:1;fill-rule:nonzero;stroke:none"
       aria-label="1"
       transform="matrix(1.3333333,0,0,1.3333333,55.866225,85.936105)" />
    <path
       id="path5"
       d="M 3.2103065,-1.1122349 H 2.999369 c -0.023437,0.082031 -0.082031,0.46875002 -0.1640625,0.53906252 -0.046875,0.0351563 -0.5273437,0.0351563 -0.609375,0.0351563 h -1.125 L 1.874369,-1.1591099 c 0.1992188,-0.1640625 0.7265625,-0.5390625 0.9140625,-0.7265625 0.1757813,-0.1757812 0.421875,-0.4804687 0.421875,-0.9023437 0,-0.75 -0.6679687,-1.1835938 -1.4765625,-1.1835938 -0.76171874,0 -1.30078124,0.5039063 -1.30078124,1.0664063 0,0.3046875 0.2578125,0.3398437 0.31640625,0.3398437 0.15234375,0 0.32812499,-0.1054687 0.32812499,-0.3164062 0,-0.140625 -0.0820312,-0.328125 -0.33984374,-0.328125 0.12890625,-0.3046875 0.50390624,-0.5273438 0.91406254,-0.5273438 0.6210937,0 0.9609375,0.46875 0.9609375,0.9492188 0,0.421875 -0.28125,0.8554687 -0.703125,1.2421875 l -1.41796879,1.30078122 c -0.0585938,0.0585938 -0.0585938,0.0585938 -0.0585938,0.24609375 H 3.0345253 Z m 0,0"
       style="fill:#262626;fill-opacity:1;fill-rule:nonzero;stroke:none"
       aria-label="2"
       transform="matrix(1.3333333,0,0,1.3333333,90.926623,85.936105)" />
    <path
       id="path6"
       d="m 1.758758,-1.9794224 c 0.5039063,0 0.84375,0.3398438 0.84375,0.9492188 0,0.65624997 -0.3867187,0.93749997 -0.8320312,0.93749997 -0.1523438,0 -0.7734375,-0.03515625 -1.04296875,-0.375 0.234375,-0.0234375 0.32812495,-0.1875 0.32812495,-0.33984375 0,-0.21093752 -0.14062495,-0.33984372 -0.3398437,-0.33984372 -0.1640625,0 -0.33984375,0.09375 -0.33984375,0.35156247 0,0.5859375 0.65624995,0.92578125 1.41796875,0.92578125 0.8789062,0 1.4765625,-0.57421875 1.4765625,-1.16015622 0,-0.4335938 -0.3398438,-0.9023438 -1.0429688,-1.078125 0.46875,-0.1523438 0.8554688,-0.5390625 0.8554688,-1.03125 0,-0.4804688 -0.5625,-0.8320313 -1.2773438,-0.8320313 -0.703125,0 -1.24218745,0.3164063 -1.24218745,0.8085938 0,0.2578125 0.19921875,0.328125 0.31640625,0.328125 0.1640625,0 0.328125,-0.1054688 0.328125,-0.3164063 0,-0.1875 -0.140625,-0.2929687 -0.29296875,-0.3164062 0.26953125,-0.3046875 0.82031245,-0.3046875 0.86718745,-0.3046875 0.3046875,0 0.6914063,0.140625 0.6914063,0.6328125 0,0.328125 -0.1875,0.9023437 -0.7851563,0.9375 -0.1054687,0.011719 -0.2695312,0.023437 -0.3164062,0.023437 -0.058594,0 -0.1289063,0.011719 -0.1289063,0.1054687 0,0.09375 0.070312,0.09375 0.1640625,0.09375 z m 0,0"
       style="fill:#262626;fill-opacity:1;fill-rule:nonzero;stroke:none"
       aria-label="3"
       transform="matrix(1.3333333,0,0,1.3333333,125.98702,85.936105)" />
    <path
       id="path7"
       d="M 3.3745924,-0.98332863 V -1.2177036 h -0.703125 v -2.6367188 c 0,-0.140625 0,-0.1757812 -0.1523438,-0.1757812 -0.1054687,0 -0.1171875,0.011719 -0.1757812,0.082031 l -2.07421876,2.7304688 v 0.23437497 H 2.1324049 v 0.48046875 c 0,0.19921875 0,0.26953125 -0.5039063,0.26953125 H 1.4527174 v 0.234375 c 0.1289062,-0.01171875 0.6914062,-0.0234375 0.9492187,-0.0234375 0.2578125,0 0.8203125,0.01171875 0.9492188,0.0234375 v -0.234375 H 3.1753736 c -0.5039062,0 -0.5039062,-0.0703125 -0.5039062,-0.26953125 V -0.98332863 Z M 2.1792799,-3.3856724 v 2.1679688 H 0.52693614 Z m 0,0"
       style="fill:#262626;fill-opacity:1;fill-rule:nonzero;stroke:none"
       aria-label="4"
       transform="matrix(1.3333333,0,0,1.3333333,161.04742,85.936105)" />
    <path
       id="path8"
       d="m 3.8680588,-2.415218 c 0,-0.6679687 -0.2929688,-1.1015625 -1.1367188,-1.1015625 -0.7851562,0 -1.1484375,0.5742188 -1.2421875,0.7617188 h -0.011719 v -0.7617188 l -1.14843752,0.09375 v 0.2578125 c 0.5390625,0 0.609375,0.058594 0.609375,0.4453125 v 2.09765629 c 0,0.36328125 -0.10546875,0.36328125 -0.609375,0.36328125 v 0.2578125 c 0.33984375,-0.0234375 0.69140622,-0.0234375 0.90234372,-0.0234375 0.234375,0 0.5742188,0 0.9140625,0.0234375 v -0.2578125 c -0.515625,0 -0.609375,0 -0.609375,-0.36328125 V -2.0636555 c 0,-0.84375 0.6445313,-1.2304687 1.125,-1.2304687 0.4921875,0 0.609375,0.3398437 0.609375,0.84375 v 1.82812499 c 0,0.36328125 -0.09375,0.36328125 -0.609375,0.36328125 v 0.2578125 c 0.3398438,-0.0234375 0.6914063,-0.0234375 0.9140625,-0.0234375 0.2226563,0 0.5625,0 0.9023438,0.0234375 v -0.2578125 c -0.5039063,0 -0.609375,0 -0.609375,-0.36328125 z m 4.8193359,0.7148438 c 0,-0.9960938 -0.8203125,-1.8515625 -1.875,-1.8515625 -1.0546875,0 -1.875,0.8554687 -1.875,1.8515625 0,0.99609374 0.8554688,1.78124999 1.875,1.78124999 1.03125,0 1.875,-0.78515625 1.875,-1.78124999 z m -1.875,1.53515624 c -0.4335937,0 -0.7617187,-0.2109375 -0.9375,-0.4921875 -0.1992187,-0.328125 -0.2226562,-0.71484374 -0.2226562,-1.11328124 0,-0.3046875 0,-0.7851563 0.2460937,-1.125 0.2109375,-0.28125 0.5390625,-0.4335938 0.9140625,-0.4335938 0.421875,0 0.7617188,0.1992188 0.9375,0.4804688 0.2226563,0.328125 0.2226563,0.7617187 0.2226563,1.078125 0,0.3632812 -0.011719,0.80859374 -0.234375,1.13671874 -0.2109375,0.31640625 -0.5742188,0.46875 -0.9257813,0.46875 z M 10.492082,-4.9113117 c 0,-0.234375 -0.1875,-0.4453125 -0.445312,-0.4453125 -0.2343753,0 -0.4453128,0.1875 -0.4453128,0.4335937 0,0.28125 0.234375,0.4570313 0.4453128,0.4570313 0.269531,0 0.445312,-0.234375 0.445312,-0.4453125 z m -1.1953123,1.4882812 v 0.2578125 c 0.5039063,0 0.5742188,0.046875 0.5742188,0.4335938 v 2.10937499 c 0,0.36328125 -0.09375,0.36328125 -0.5976563,0.36328125 v 0.2578125 c 0.3046875,-0.0234375 0.7499998,-0.0234375 0.8671878,-0.0234375 0.105468,0 0.585937,0 0.867187,0.0234375 v -0.2578125 c -0.515625,0 -0.550781,-0.046875 -0.550781,-0.3515625 V -3.5167805 Z m 4.8251953,0.070312 c 0,-0.1171875 0,-0.1992187 -0.105469,-0.1992187 -0.03516,0 -0.05859,0 -0.1875,0.1289062 -0.01172,0 -0.09375,0.070312 -0.117187,0.070312 0,0 -0.02344,0 -0.07031,-0.023437 -0.128906,-0.09375 -0.351562,-0.1757812 -0.714843,-0.1757812 -1.113282,0 -1.359375,0.5976562 -1.359375,0.984375 0,0.3984375 0.292968,0.6328125 0.316406,0.65625 0.316406,0.234375 0.503906,0.2695312 1.03125,0.3632812 0.375,0.070312 0.996094,0.1875 0.996094,0.72656254 0,0.3046875 -0.210938,0.6796875 -0.949219,0.6796875 -0.796875,0 -1.03125,-0.62109375 -1.136719,-1.04296874 -0.02344,-0.1054688 -0.03516,-0.1523438 -0.128906,-0.1523438 -0.128906,0 -0.128906,0.070312 -0.128906,0.2226563 v 0.98437499 c 0,0.12890625 0,0.2109375 0.105468,0.2109375 0.04687,0 0.04687,-0.01171875 0.199219,-0.1640625 0.03516,-0.03515625 0.128906,-0.140625 0.164063,-0.17578125 0.363281,0.31640625 0.726562,0.33984375 0.9375,0.33984375 1.019531,0 1.359375,-0.5859375 1.359375,-1.11328129 0,-0.375 -0.222657,-0.9375 -1.171875,-1.1132812 -0.07031,-0.011719 -0.515625,-0.09375 -0.539063,-0.09375 -0.257812,-0.058594 -0.621094,-0.2226563 -0.621094,-0.5390625 0,-0.2460938 0.164063,-0.5742188 0.925782,-0.5742188 0.890625,0 0.9375,0.6445313 0.949218,0.8789063 0.01172,0.058594 0.05859,0.082031 0.117188,0.082031 0.128906,0 0.128906,-0.058594 0.128906,-0.2109375 z m 3.796875,1.5351563 c 0.175781,0 0.222656,0 0.222656,-0.1875 0,-0.703125 -0.386718,-1.546875 -1.511718,-1.546875 -0.996094,0 -1.769532,0.8203125 -1.769532,1.8046875 0,1.03124999 0.867188,1.82812499 1.875,1.82812499 1.007813,0 1.40625,-0.85546875 1.40625,-1.04296875 0,-0.0234375 -0.02344,-0.10546874 -0.128906,-0.10546874 -0.08203,0 -0.105469,0.058594 -0.117187,0.10546874 -0.292969,0.7734375 -0.972657,0.796875 -1.113282,0.796875 -0.363281,0 -0.726562,-0.17578125 -0.972656,-0.5390625 C 15.57509,-1.0675617 15.57509,-1.5831867 15.57509,-1.8175617 Z m -2.332031,-0.2109375 c 0.07031,-1.1132813 0.75,-1.3007813 1.042969,-1.3007813 0.925781,0 0.960937,1.125 0.972656,1.3007813 z m 8.458008,-1.3242188 c 0,-0.1171875 0,-0.1992187 -0.105469,-0.1992187 -0.03516,0 -0.05859,0 -0.1875,0.1289062 -0.01172,0 -0.09375,0.070312 -0.117188,0.070312 0,0 -0.02344,0 -0.07031,-0.023437 -0.128906,-0.09375 -0.351563,-0.1757812 -0.714844,-0.1757812 -1.113281,0 -1.359375,0.5976562 -1.359375,0.984375 0,0.3984375 0.292969,0.6328125 0.316406,0.65625 0.316407,0.234375 0.503907,0.2695312 1.03125,0.3632812 0.375,0.070312 0.996094,0.1875 0.996094,0.72656254 0,0.3046875 -0.210937,0.6796875 -0.949219,0.6796875 -0.796875,0 -1.03125,-0.62109375 -1.136718,-1.04296874 -0.02344,-0.1054688 -0.03516,-0.1523438 -0.128907,-0.1523438 -0.128906,0 -0.128906,0.070312 -0.128906,0.2226563 v 0.98437499 c 0,0.12890625 0,0.2109375 0.105469,0.2109375 0.04687,0 0.04687,-0.01171875 0.199219,-0.1640625 0.03516,-0.03515625 0.128906,-0.140625 0.164062,-0.17578125 0.363281,0.31640625 0.726563,0.33984375 0.9375,0.33984375 1.019531,0 1.359375,-0.5859375 1.359375,-1.11328129 0,-0.375 -0.222656,-0.9375 -1.171875,-1.1132812 -0.07031,-0.011719 -0.515625,-0.09375 -0.539062,-0.09375 -0.257813,-0.058594 -0.621094,-0.2226563 -0.621094,-0.5390625 0,-0.2460938 0.164062,-0.5742188 0.925781,-0.5742188 0.890625,0 0.9375,0.6445313 0.949219,0.8789063 0.01172,0.058594 0.05859,0.082031 0.117187,0.082031 0.128907,0 0.128907,-0.058594 0.128907,-0.2109375 z m 3.433593,0.1875 c -0.222656,0.070312 -0.257812,0.2578125 -0.257812,0.3515625 0,0.2109375 0.152344,0.375 0.375,0.375 0.210937,0 0.375,-0.140625 0.375,-0.3867187 0,-0.4921875 -0.539063,-0.7265625 -1.289063,-0.7265625 -1.101562,0 -1.851562,0.8789062 -1.851562,1.828125 0,1.00781249 0.832031,1.80468749 1.828125,1.80468749 1.125,0 1.40625,-0.9375 1.40625,-1.04296875 0,-0.09375 -0.105469,-0.09375 -0.128906,-0.09375 -0.05859,0 -0.09375,0.011719 -0.117188,0.09375 -0.05859,0.1640625 -0.28125,0.796875 -1.078125,0.796875 -0.492187,0 -1.207031,-0.38671875 -1.207031,-1.57031254 0,-1.1367187 0.597656,-1.5703125 1.171875,-1.5703125 0.07031,0 0.492187,0 0.773437,0.140625 z m 4.183594,0.7851563 c 0,-0.7734375 -0.761719,-1.171875 -1.488281,-1.171875 -0.65625,0 -1.253906,0.2460937 -1.253906,0.7734375 0,0.2460937 0.175781,0.3867187 0.375,0.3867187 0.222656,0 0.375,-0.1640625 0.375,-0.375 0,-0.1875 -0.117188,-0.328125 -0.292969,-0.3632812 0.292969,-0.1992188 0.726562,-0.1992188 0.785156,-0.1992188 0.445313,0 0.890625,0.3046875 0.890625,0.9609375 v 0.2460938 c -0.46875,0.023437 -0.996094,0.046875 -1.558594,0.28125 -0.703125,0.3046875 -0.832031,0.7617187 -0.832031,1.03124999 0,0.6796875 0.808594,0.890625 1.359375,0.890625 0.574219,0 0.9375,-0.328125 1.113281,-0.64453125 0.03516,0.3046875 0.246094,0.59765625 0.597657,0.59765625 0.08203,0 0.75,-0.0234375 0.75,-0.75 V -1.1613117 h -0.246094 v 0.44531249 c 0,0.328125 -0.117188,0.45703125 -0.28125,0.45703125 -0.292969,0 -0.292969,-0.375 -0.292969,-0.45703125 z m -0.609375,1.2539062 c 0,0.77343754 -0.65625,0.98437504 -0.972656,0.98437504 -0.410156,0 -0.761719,-0.28125 -0.761719,-0.66796875 0,-0.52734379 0.492188,-1.06640629 1.734375,-1.10156249 z m 3.014649,-4.40625 -1.183594,0.09375 v 0.2578125 c 0.539062,0 0.597656,0.058594 0.597656,0.4453125 v 4.11328129 c 0,0.36328125 -0.09375,0.36328125 -0.597656,0.36328125 v 0.2578125 c 0.304687,-0.0234375 0.75,-0.0234375 0.890625,-0.0234375 0.152344,0 0.585937,0 0.902344,0.0234375 v -0.2578125 c -0.515625,0 -0.609375,0 -0.609375,-0.36328125 z m 4.11914,3.7148438 c 0.175781,0 0.222656,0 0.222656,-0.1875 0,-0.703125 -0.386718,-1.546875 -1.511718,-1.546875 -0.996094,0 -1.769532,0.8203125 -1.769532,1.8046875 0,1.03124999 0.867188,1.82812499 1.875,1.82812499 1.007813,0 1.40625,-0.85546875 1.40625,-1.04296875 0,-0.0234375 -0.02344,-0.10546874 -0.128906,-0.10546874 -0.08203,0 -0.105469,0.058594 -0.117187,0.10546874 -0.292969,0.7734375 -0.972657,0.796875 -1.113282,0.796875 -0.363281,0 -0.726562,-0.17578125 -0.972656,-0.5390625 C 35.842668,-1.0675617 35.842668,-1.5831867 35.842668,-1.8175617 Z m -2.332031,-0.2109375 c 0.07031,-1.1132813 0.75,-1.3007813 1.042969,-1.3007813 0.925781,0 0.960937,1.125 0.972656,1.3007813 z m 7.78125,4.0195312 V 1.6277508 h -0.796875 v -7.2421875 h 0.796875 V -5.977718 h -1.171875 v 7.96875 z m 2.291016,-0.7148437 c -0.515625,0 -0.609375,0 -0.609375,-0.35156251 v -1.3125 c 0.375,0.3984375 0.785156,0.46875 1.042968,0.46875 1.007813,0 1.886719,-0.78515625 1.886719,-1.80468749 0,-0.9960938 -0.808594,-1.7929688 -1.769531,-1.7929688 -0.316406,0 -0.773438,0.082031 -1.183594,0.4921875 V -3.516781 l -1.183594,0.09375 v 0.2578125 c 0.5625,0 0.597657,0.046875 0.597657,0.3867188 v 3.70312499 c 0,0.35156251 -0.09375,0.35156251 -0.597657,0.35156251 V 1.545719 c 0.339844,-0.023437 0.691407,-0.023437 0.902344,-0.023437 0.234375,0 0.574219,0 0.914063,0.023437 z M 45.317278,-2.649593 c 0.1875,-0.328125 0.585937,-0.6210937 1.089843,-0.6210937 0.609375,0 1.125,0.6796875 1.125,1.546875 0,0.91406249 -0.574218,1.58203124 -1.21875,1.58203124 -0.28125,0 -0.644531,-0.1171875 -0.902343,-0.515625 -0.09375,-0.140625 -0.09375,-0.15234375 -0.09375,-0.3046875 z m 4.77539,-2.2617187 c 0,-0.234375 -0.1875,-0.4453125 -0.445312,-0.4453125 -0.234375,0 -0.445313,0.1875 -0.445313,0.4335937 0,0.28125 0.234375,0.4570313 0.445313,0.4570313 0.269531,0 0.445312,-0.234375 0.445312,-0.4453125 z m -1.195312,1.4882812 v 0.2578125 c 0.503906,0 0.574218,0.046875 0.574218,0.4335938 v 2.10937499 c 0,0.36328125 -0.09375,0.36328125 -0.597656,0.36328125 v 0.2578125 c 0.304688,-0.0234375 0.75,-0.0234375 0.867188,-0.0234375 0.105468,0 0.585937,0 0.867187,0.0234375 v -0.2578125 c -0.515625,0 -0.550781,-0.046875 -0.550781,-0.3515625 V -3.5167805 Z m 4.435547,1.5585938 c 0.222656,-0.28125 0.457031,-0.5507813 0.703125,-0.8085938 0.257812,-0.28125 0.539062,-0.4921875 1.042968,-0.5039062 v -0.2578125 c -0.316406,0.023437 -0.328125,0.023437 -0.691406,0.023437 -0.03516,0 -0.503906,0 -0.75,-0.023437 v 0.2578125 c 0.152344,0.023437 0.175781,0.1171875 0.175781,0.2226562 0,0.1054688 -0.03516,0.1992188 -0.128906,0.3046875 l -0.503906,0.5976563 -0.632813,-0.75 c -0.09375,-0.1171875 -0.09375,-0.1757813 -0.09375,-0.1875 0,-0.058594 0.04687,-0.1757813 0.246094,-0.1875 v -0.2578125 c -0.316406,0.023437 -0.761719,0.023437 -0.855469,0.023437 -0.140625,0 -0.550781,0 -0.785156,-0.023437 v 0.2578125 c 0.539063,0 0.550781,0.011719 0.960938,0.5039062 l 0.820312,0.9960938 -0.726562,0.84374999 c -0.199219,0.22265625 -0.492188,0.55078125 -1.089844,0.57421875 v 0.2578125 c 0.292969,-0.0234375 0.339844,-0.0234375 0.679687,-0.0234375 0.01172,0 0.503907,0 0.761719,0.0234375 v -0.2578125 c -0.105469,-0.0234375 -0.199219,-0.0820313 -0.199219,-0.22265625 0,-0.140625 0.09375,-0.2578125 0.128907,-0.29296875 0.199218,-0.23437504 0.410156,-0.48046874 0.621093,-0.70312504 l 0.644532,0.77343754 c 0.164062,0.1875 0.164062,0.19921875 0.164062,0.2578125 0,0.0585938 -0.05859,0.17578125 -0.246094,0.1875 v 0.2578125 c 0.339844,-0.0234375 0.703125,-0.0234375 0.855469,-0.0234375 0.140625,0 0.550781,0 0.785156,0.0234375 v -0.2578125 c -0.492187,0 -0.574218,-0.046875 -0.785156,-0.29296875 z m 3.375,-4.1132813 h -1.171875 v 0.3632813 h 0.796875 V 1.6277508 H 55.536028 V 1.991032 h 1.171875 z m 0,0"
       style="fill:#262626;fill-opacity:1;fill-rule:nonzero;stroke:none"
       aria-label="noisescale[pix]"
       transform="matrix(1.3333333,0,0,1.3333333,57.069151,98.122634)" />
    <path
       id="path9"
       d="m 3.2808645,-1.9087526 c 0,-0.4335938 0,-2.0625 -1.453125,-2.0625 -1.46484377,0 -1.46484377,1.6289062 -1.46484377,2.0625 0,0.4335937 0,2.03906246 1.46484377,2.03906246 1.453125,0 1.453125,-1.60546876 1.453125,-2.03906246 z m -1.453125,1.83984371 c -0.2578125,0 -0.6679688,-0.1171875 -0.8085938,-0.609375 -0.09375,-0.35156251 -0.09375,-0.93750001 -0.09375,-1.30078121 0,-0.3984375 0,-0.8671875 0.0820313,-1.1835938 0.1523437,-0.5390625 0.609375,-0.6210937 0.8203125,-0.6210937 0.2695312,0 0.6679687,0.1289062 0.796875,0.5859375 0.09375,0.3164062 0.09375,0.75 0.09375,1.21875 0,0.375 0,0.98437496 -0.1054688,1.31249996 -0.1640625,0.52734375 -0.5976562,0.59765625 -0.7851562,0.59765625 z m 0,0"
       style="fill:#262626;fill-opacity:1;fill-rule:nonzero;stroke:none"
       aria-label="0"
       transform="matrix(1.3333333,0,0,1.3333333,13.293483,80.502035)" />
    <path
       id="path10"
       d="M 3.210552,-1.1137224 H 2.9996145 c -0.023437,0.082031 -0.082031,0.46875002 -0.1640625,0.53906252 -0.046875,0.0351563 -0.5273438,0.0351563 -0.609375,0.0351563 h -1.125 L 1.8746145,-1.1605974 c 0.1992187,-0.1640625 0.7265625,-0.5390625 0.9140625,-0.7265625 0.1757812,-0.1757812 0.421875,-0.4804687 0.421875,-0.9023437 0,-0.75 -0.6679688,-1.1835938 -1.4765625,-1.1835938 -0.76171877,0 -1.30078127,0.5039063 -1.30078127,1.0664063 0,0.3046875 0.2578125,0.3398437 0.31640625,0.3398437 0.15234375,0 0.32812502,-0.1054687 0.32812502,-0.3164062 0,-0.140625 -0.0820313,-0.328125 -0.33984377,-0.328125 0.12890625,-0.3046875 0.50390627,-0.5273438 0.91406247,-0.5273438 0.6210938,0 0.9609375,0.46875 0.9609375,0.9492188 0,0.421875 -0.28125,0.8554687 -0.703125,1.2421875 l -1.41796872,1.30078122 c -0.0585938,0.0585938 -0.0585938,0.0585938 -0.0585938,0.246093749 H 3.0347707 Z m 0,0"
       style="fill:#262626;fill-opacity:1;fill-rule:nonzero;stroke:none"
       aria-label="2"
       transform="matrix(1.3333333,0,0,1.3333333,13.293483,51.074807)" />
    <path
       id="path11"
       d="M 3.3746145,-0.98373118 V -1.2181062 h -0.703125 v -2.6367187 c 0,-0.140625 0,-0.1757813 -0.1523438,-0.1757813 -0.1054687,0 -0.1171875,0.011719 -0.1757812,0.082031 l -2.07421877,2.7304687 v 0.23437502 H 2.132427 v 0.48046875 c 0,0.19921875 0,0.26953125 -0.5039063,0.26953125 H 1.4527395 V 6.438159e-4 C 1.5816457,-0.01107493 2.1441457,-0.02279368 2.4019582,-0.02279368 c 0.2578125,0 0.8203125,0.01171875 0.9492188,0.0234374959 V -0.23373118 H 3.1753957 c -0.5039062,0 -0.5039062,-0.0703125 -0.5039062,-0.26953125 V -0.98373118 Z M 2.179302,-3.3860749 v 2.1679687 H 0.52695823 Z m 0,0"
       style="fill:#262626;fill-opacity:1;fill-rule:nonzero;stroke:none"
       aria-label="4"
       transform="matrix(1.3333333,0,0,1.3333333,13.293483,21.647579)" />
    <path
       id="path12"
       d="m 1.6059057,-1.8174278 c 0.1757813,0 0.7734375,-0.011719 1.1953125,-0.1640625 0.6914063,-0.234375 0.7148438,-0.7148438 0.7148438,-0.8320313 0,-0.4453125 -0.421875,-0.703125 -0.9375,-0.703125 -0.9023438,0 -2.19140629,0.7148438 -2.19140629,2.1210938 0,0.80859374 0.4921875,1.47656249 1.37109379,1.47656249 1.2421875,0 1.9101562,-0.796875 1.9101562,-0.9140625 0,-0.0703125 -0.070312,-0.12890625 -0.1171875,-0.12890625 -0.046875,0 -0.082031,0.0234375 -0.1171875,0.0820313 -0.6328125,0.73828125 -1.5234375,0.73828125 -1.6523437,0.73828125 -0.5859375,0 -0.7617188,-0.4921875 -0.7617188,-0.93749999 0,-0.2460937 0.070312,-0.5976562 0.1054688,-0.7382812 z m -0.421875,-0.2226563 c 0.2578125,-0.9726562 0.984375,-1.2539062 1.3945313,-1.2539062 0.3164062,0 0.6210937,0.1640625 0.6210937,0.4804687 0,0.7734375 -1.3125,0.7734375 -1.640625,0.7734375 z m 0,0"
       style="fill:#262626;fill-opacity:1;fill-rule:nonzero;stroke:none"
       aria-label="e"
       transform="matrix(0,-1.3333333,1.3333333,0,7.9701121,64.895114)" />
    <path
       id="path13"
       d="m 1.6062329,-2.3332231 h 0.65625 c 0.1171875,0 0.1992187,0 0.1992187,-0.1523437 0,-0.09375 -0.082031,-0.09375 -0.1875,-0.09375 h -0.609375 l 0.2109375,-0.8203125 c 0.023437,-0.09375 0.023437,-0.1289063 0.023437,-0.1289063 0,-0.1523437 -0.1171875,-0.2109375 -0.2109375,-0.2109375 -0.070312,0 -0.2226562,0.046875 -0.28125,0.234375 l -0.234375,0.9257813 H 0.52810785 c -0.1171875,0 -0.12890625,0.011719 -0.15234375,0.023437 -0.0234375,0.023437 -0.046875,0.1054687 -0.046875,0.1289062 0.0117188,0.09375 0.0703125,0.09375 0.1875,0.09375 h 0.5976563 l -0.35156255,1.40625003 c -0.0351563,0.140625 -0.0820313,0.33984375 -0.0820313,0.41015625 0,0.3515625 0.31640625,0.57421875 0.67968755,0.57421875 0.6796875,0 1.0898438,-0.8203125 1.0898438,-0.9140625 0,-0.0234375 -0.011719,-0.09375 -0.1171875,-0.09375 -0.070312,0 -0.082031,0.0351563 -0.1171875,0.10546875 -0.1992188,0.4453125 -0.5390625,0.703125 -0.8320313,0.703125 -0.2226562,0 -0.234375,-0.22265625 -0.234375,-0.29296875 0,-0.0820312 0,-0.09375 0.035156,-0.2109375 z m 0,0"
       style="fill:#262626;fill-opacity:1;fill-rule:nonzero;stroke:none"
       aria-label="t"
       transform="matrix(0,-1.3333333,1.3333333,0,9.2984641,59.657269)" />
    <path
       id="path14"
       d="M 2.1556204,1.9911659 V 1.6278847 h -0.796875 v -7.2421875 h 0.796875 v -0.3632813 h -1.171875 v 7.96875 z m 2.8212891,-7.4296875 v 0.2578125 c 0.5390625,0 0.5976562,0.058594 0.5976562,0.4453125 v 1.6875 c -0.2695312,-0.3046875 -0.6445312,-0.46875 -1.0664062,-0.46875 -0.9960938,0 -1.875,0.7734375 -1.875,1.8046875 0,0.97265629 0.796875,1.79296879 1.7929687,1.79296879 0.4804688,0 0.8671875,-0.22265625 1.125,-0.50390625 v 0.50390625 l 1.21875,-0.08203125 v -0.2578125 c -0.5507812,0 -0.609375,-0.0585938 -0.609375,-0.45703125 V -5.5322716 Z m 0.5742187,4.45312504 c 0,0.140625 0,0.17578125 -0.1171875,0.328125 -0.2226562,0.31640625 -0.5859375,0.515625 -0.9609375,0.515625 -0.3632812,0 -0.6914062,-0.19921875 -0.8789062,-0.4921875 -0.2109375,-0.3046875 -0.2578125,-0.70312504 -0.2578125,-1.07812504 0,-0.4570312 0.070312,-0.7851562 0.2578125,-1.0664062 0.1875,-0.2929688 0.5507812,-0.515625 0.9609375,-0.515625 0.375,0 0.7617187,0.1875 0.9960937,0.609375 z M 10.347027,-1.8174278 c 0.175781,0 0.222656,0 0.222656,-0.1875 0,-0.703125 -0.386719,-1.546875 -1.5117188,-1.546875 -0.9960938,0 -1.7695313,0.8203125 -1.7695313,1.8046875 0,1.03124999 0.8671875,1.82812499 1.875,1.82812499 1.0078121,0 1.4062501,-0.85546875 1.4062501,-1.04296875 0,-0.0234375 -0.02344,-0.10546874 -0.128906,-0.10546874 -0.08203,0 -0.105469,0.058594 -0.117188,0.10546874 -0.292969,0.7734375 -0.9726561,0.796875 -1.1132811,0.796875 -0.3632812,0 -0.7265625,-0.17578125 -0.9726562,-0.5390625 C 8.0032767,-1.0674278 8.0032767,-1.5830528 8.0032767,-1.8174278 Z M 8.0149954,-2.0283653 c 0.070312,-1.1132813 0.75,-1.3007813 1.0429688,-1.3007813 0.9257812,0 0.9609378,1.125 0.9726558,1.3007813 z m 4.1835936,1.47656249 c -0.246094,-0.0234375 -0.445312,-0.234375 -0.445312,-0.52734379 0,-0.1875 0.04687,-0.2578125 0.09375,-0.328125 0.339843,0.1992188 0.644531,0.234375 0.84375,0.234375 0.785156,0 1.371093,-0.5507812 1.371093,-1.171875 0,-0.3046875 -0.140625,-0.5625 -0.328125,-0.7617187 0.105469,-0.09375 0.375,-0.2695313 0.761719,-0.2695313 -0.03516,0.023437 -0.07031,0.058594 -0.07031,0.1875 0,0.140625 0.105468,0.2460938 0.246093,0.2460938 0.117188,0 0.246094,-0.070312 0.246094,-0.2578125 0,-0.1289063 -0.105469,-0.3984375 -0.457031,-0.3984375 -0.128906,0 -0.515625,0.023437 -0.878906,0.3632812 -0.199219,-0.140625 -0.515625,-0.28125 -0.890625,-0.28125 -0.785157,0 -1.359375,0.5507813 -1.359375,1.171875 0,0.375 0.199218,0.65625 0.363281,0.8085938 -0.164063,0.1992187 -0.234375,0.4570312 -0.234375,0.65624999 0,0.31640625 0.164062,0.5625 0.339844,0.703125 -0.421875,0.1171875 -0.75,0.421875 -0.75,0.78515625 0,0.57421876 0.820312,1.01953126 1.875,1.01953126 0.996093,0 1.875,-0.3984375 1.875,-1.03125001 0,-0.43359375 -0.257813,-0.76171875 -0.515625,-0.90234375 -0.46875,-0.24609375 -0.867188,-0.24609375 -1.640625,-0.24609375 z m 0.492188,-0.85546879 c -0.738282,0 -0.738282,-0.7617187 -0.738282,-0.9375 0,-0.2929687 0.04687,-0.5039062 0.164063,-0.65625 0.128906,-0.1875 0.351562,-0.28125 0.574219,-0.28125 0.738281,0 0.738281,0.7617188 0.738281,0.9375 0,0.2929688 -0.03516,0.5039063 -0.164063,0.6679688 -0.175781,0.2226562 -0.421875,0.2695312 -0.574218,0.2695312 z m 0.375,1.37109379 c 0.222656,0 1.265625,0 1.265625,0.64453125 0,0.42187496 -0.609375,0.79687496 -1.40625,0.79687496 -0.796875,0 -1.394532,-0.375 -1.394532,-0.79687496 0,-0.17578125 0.117188,-0.64453125 0.773438,-0.64453125 z M 16.40562,-5.9775841 h -1.171875 v 0.3632813 h 0.796875 v 7.2421875 h -0.796875 v 0.3632812 h 1.171875 z m 0,0"
       style="fill:#262626;fill-opacity:1;fill-rule:nonzero;stroke:none"
       aria-label="[deg]"
       transform="matrix(0,-1.3333333,1.3333333,0,7.9701121,51.428848)" />
    <path
       id="path15"
       d="m 20.717738,34.595043 3.286913,3.331521 3.286912,0.407835 3.286912,4.74644 3.286913,-1.031046 3.286912,1.09386 3.286912,1.780243 3.286913,1.810889 3.286912,1.661987 3.286912,-1.068746 3.286913,2.795379 3.286912,0.498534 3.286912,-1.279435 3.286912,3.571444 3.286913,1.452656 3.286912,-0.957987 3.286912,1.287988 3.286913,-0.02456 3.286912,1.508202 3.286912,0.089 3.286913,-1.212549 3.286912,1.740202 3.286912,1.400928 3.286913,1.467799 3.286912,-0.217425 3.286916,-0.792388 3.28691,-0.22233 3.28691,2.429298 3.28691,0.524049 3.28692,0.88547 3.28691,0.150533 3.28691,-1.03867"
       style="fill:none;stroke:#023eff;stroke-width:1;stroke-linecap:butt;stroke-linejoin:round;stroke-miterlimit:10;stroke-dasharray:6.4, 1.6, 1, 1.6;stroke-dashoffset:0;stroke-opacity:1"
       transform="matrix(1.3333333,0,0,-1.3333333,0,100.77934)"
       clip-path="url(#clipPath16)" />
    <path
       id="path17"
       d="m 20.717738,29.885489 3.286913,2.854096 3.286912,1.666987 3.286912,3.789656 3.286913,-0.525962 3.286912,1.84386 3.286912,1.55894 3.286913,1.362276 3.286912,1.538164 3.286912,-0.275298 3.286913,1.446065 3.286912,1.149484 3.286912,-1.826758 3.286912,4.575203 3.286913,1.6757 3.286912,-0.514788 3.286912,-0.603953 3.286913,1.26441 3.286912,1.555279 3.286912,0.535395 3.286913,-1.313544 3.286912,1.750898 3.286912,0.425155 3.286913,1.964408 3.286912,-0.375045 3.286916,-0.226802 3.28691,-1.986426 3.28691,3.657269 3.28691,0.668132 3.28692,0.879552 3.28691,-0.943015 3.28691,0.262159"
       style="fill:none;stroke:#ff7c00;stroke-width:1;stroke-linecap:butt;stroke-linejoin:round;stroke-miterlimit:10;stroke-dasharray:3.7, 1.6;stroke-dashoffset:0;stroke-opacity:1"
       transform="matrix(1.3333333,0,0,-1.3333333,0,100.77934)"
       clip-path="url(#clipPath18)" />
    <path
       id="path19"
       d="M 15.623024,17.28353 V 64.049702"
       style="fill:none;stroke:#262626;stroke-width:0.6;stroke-linecap:square;stroke-linejoin:miter;stroke-miterlimit:10;stroke-dasharray:none;stroke-opacity:1"
       transform="matrix(1.3333333,0,0,-1.3333333,0,100.77934)" />
    <path
       id="path20"
       d="M 127.70673,17.28353 V 64.049702"
       style="fill:none;stroke:#262626;stroke-width:0.6;stroke-linecap:square;stroke-linejoin:miter;stroke-miterlimit:10;stroke-dasharray:none;stroke-opacity:1"
       transform="matrix(1.3333333,0,0,-1.3333333,0,100.77934)" />
    <path
       id="path21"
       d="M 15.623024,17.28353 H 127.70673"
       style="fill:none;stroke:#262626;stroke-width:0.6;stroke-linecap:square;stroke-linejoin:miter;stroke-miterlimit:10;stroke-dasharray:none;stroke-opacity:1"
       transform="matrix(1.3333333,0,0,-1.3333333,0,100.77934)" />
    <path
       id="path22"
       d="M 15.623024,64.049702 H 127.70673"
       style="fill:none;stroke:#262626;stroke-width:0.6;stroke-linecap:square;stroke-linejoin:miter;stroke-miterlimit:10;stroke-dasharray:none;stroke-opacity:1"
       transform="matrix(1.3333333,0,0,-1.3333333,0,100.77934)" />
    <path
       id="path23"
       d="M 1.47795,-3.1764033 H 2.6732625 V -3.4342158 H 1.47795 V -4.8990596 H 1.2318563 c 0,0.7265625 -0.32812502,1.4765625 -1.06640627,1.5 v 0.2226563 h 0.71484375 v 2.17968749 c 0,0.9375 0.71484372,1.078125 1.07812502,1.078125 0.5390625,0 0.8554687,-0.48046875 0.8554687,-1.078125 V -1.4420283 H 2.5677938 v 0.4335937 c 0,0.55078129 -0.2460938,0.84375004 -0.5507813,0.84375004 -0.5390625,0 -0.5390625,-0.69140625 -0.5390625,-0.8203125 z m 3.2783203,1.359375 c 0,-0.5976563 0.2460938,-1.453125 1.0078125,-1.4765625 -0.046875,0.035156 -0.1171875,0.09375 -0.1171875,0.28125 0,0.2460937 0.1875,0.3632812 0.3515625,0.3632812 0.1875,0 0.3515625,-0.1289062 0.3515625,-0.3632812 0,-0.28125 -0.2578125,-0.5039063 -0.609375,-0.5039063 -0.515625,0 -0.8671875,0.3867188 -1.03125,0.84375 h -0.011719 v -0.84375 l -1.125,0.09375 v 0.2578125 c 0.5390625,0 0.5976562,0.058594 0.5976562,0.4453125 v 2.09765629 c 0,0.36328125 -0.09375,0.36328125 -0.5976562,0.36328125 v 0.2578125031 c 0.3046875,-0.0234375031 0.75,-0.0234375031 0.9375,-0.0234375031 0.46875,0 0.4921875,0 1.0078125,0.0234375031 V -0.25843456 H 5.3539266 c -0.5859375,0 -0.5976563,-0.09375 -0.5976563,-0.375 z m 5.1855469,-0.5625 c 0,-0.7734375 -0.7617187,-1.171875 -1.4882812,-1.171875 -0.65625,0 -1.2539063,0.2460937 -1.2539063,0.7734375 0,0.2460937 0.1757813,0.3867187 0.375,0.3867187 0.2226563,0 0.375,-0.1640625 0.375,-0.375 0,-0.1875 -0.1171875,-0.328125 -0.2929687,-0.3632812 0.2929687,-0.1992188 0.7265625,-0.1992188 0.7851562,-0.1992188 0.4453125,0 0.890625,0.3046875 0.890625,0.9609375 v 0.2460938 c -0.46875,0.023437 -0.9960937,0.046875 -1.5585937,0.28125 -0.703125,0.3046875 -0.8320313,0.7617187 -0.8320313,1.03124999 0,0.6796875 0.8085938,0.890625 1.359375,0.890625 0.5742188,0 0.9375,-0.328125 1.1132813,-0.64453125 0.035156,0.3046875 0.2460937,0.59765625 0.5976565,0.59765625 0.08203,0 0.75,-0.0234375 0.75,-0.75 V -1.1607783 h -0.246094 v 0.44531249 c 0,0.328125 -0.117188,0.45703125 -0.28125,0.45703125 -0.2929688,0 -0.2929688,-0.375 -0.2929688,-0.45703125 z m -0.609375,1.2539062 c 0,0.77343754 -0.65625,0.98437504 -0.9726562,0.98437504 -0.4101563,0 -0.7617188,-0.28125 -0.7617188,-0.66796875 0,-0.52734379 0.4921875,-1.06640629 1.734375,-1.10156249 z m 5.3583988,-1.2890625 c 0,-0.6679687 -0.292969,-1.1015625 -1.136719,-1.1015625 -0.785156,0 -1.148438,0.5742188 -1.242188,0.7617188 h -0.01172 v -0.7617188 l -1.148438,0.09375 v 0.2578125 c 0.539063,0 0.609375,0.058594 0.609375,0.4453125 v 2.09765629 c 0,0.36328125 -0.105469,0.36328125 -0.609375,0.36328125 V -6.220569e-4 C 11.491622,-0.02405956 11.843184,-0.02405956 12.054122,-0.02405956 c 0.234375,0 0.574219,0 0.914062,0.0234375031 V -0.25843456 c -0.515625,0 -0.609375,0 -0.609375,-0.36328125 V -2.0631221 c 0,-0.84375 0.644532,-1.2304687 1.125,-1.2304687 0.492188,0 0.609375,0.3398437 0.609375,0.84375 v 1.82812499 c 0,0.36328125 -0.09375,0.36328125 -0.609375,0.36328125 V -6.220569e-4 C 13.823653,-0.02405956 14.175216,-0.02405956 14.397872,-0.02405956 c 0.222656,0 0.5625,0 0.902344,0.0234375031 V -0.25843456 c -0.503907,0 -0.609375,0 -0.609375,-0.36328125 z m 3.670898,-0.9375 c 0,-0.1171875 0,-0.1992187 -0.105469,-0.1992187 -0.03516,0 -0.05859,0 -0.1875,0.1289062 -0.01172,0 -0.09375,0.070312 -0.117187,0.070312 0,0 -0.02344,0 -0.07031,-0.023437 -0.128906,-0.09375 -0.351562,-0.1757812 -0.714843,-0.1757812 -1.113282,0 -1.359375,0.5976562 -1.359375,0.984375 0,0.3984375 0.292968,0.6328125 0.316406,0.65625 0.316406,0.234375 0.503906,0.2695312 1.03125,0.3632812 0.375,0.070312 0.996094,0.1875 0.996094,0.72656254 0,0.3046875 -0.210938,0.6796875 -0.949219,0.6796875 -0.796875,0 -1.03125,-0.62109375 -1.136719,-1.04296874 -0.02344,-0.1054688 -0.03516,-0.1523438 -0.128906,-0.1523438 -0.128906,0 -0.128906,0.070312 -0.128906,0.2226563 v 0.98437499 c 0,0.1289062531 0,0.2109375 0.105468,0.2109375 0.04687,0 0.04687,-0.01171875 0.199219,-0.1640625 0.03516,-0.03515625 0.128906,-0.140625 0.164063,-0.17578125 0.363281,0.31640625 0.726562,0.33984375 0.9375,0.33984375 1.019531,0 1.359375,-0.5859375 1.359375,-1.11328129 0,-0.375 -0.222657,-0.9375 -1.171875,-1.1132812 -0.07031,-0.011719 -0.515625,-0.09375 -0.539063,-0.09375 -0.257812,-0.058594 -0.621094,-0.2226563 -0.621094,-0.5390625 0,-0.2460938 0.164063,-0.5742188 0.925782,-0.5742188 0.890625,0 0.9375,0.6445313 0.949218,0.8789063 0.01172,0.058594 0.05859,0.082031 0.117188,0.082031 0.128906,0 0.128906,-0.058594 0.128906,-0.2109375 z m 2.027344,-2.1796875 -1.183594,0.09375 v 0.2578125 c 0.539063,0 0.597656,0.058594 0.597656,0.4453125 v 4.11328129 c 0,0.36328125 -0.09375,0.36328125 -0.597656,0.36328125 v 0.2578125031 c 0.304688,-0.0234375031 0.75,-0.0234375031 0.890625,-0.0234375031 0.152344,0 0.585938,0 0.902344,0.0234375031 V -0.25843456 c -0.515625,0 -0.609375,0 -0.609375,-0.36328125 z m 4.177734,3.1523438 c 0,-0.7734375 -0.761719,-1.171875 -1.488281,-1.171875 -0.65625,0 -1.253906,0.2460937 -1.253906,0.7734375 0,0.2460937 0.175781,0.3867187 0.375,0.3867187 0.222656,0 0.375,-0.1640625 0.375,-0.375 0,-0.1875 -0.117188,-0.328125 -0.292969,-0.3632812 0.292969,-0.1992188 0.726562,-0.1992188 0.785156,-0.1992188 0.445313,0 0.890625,0.3046875 0.890625,0.9609375 v 0.2460938 c -0.46875,0.023437 -0.996094,0.046875 -1.558594,0.28125 -0.703125,0.3046875 -0.832031,0.7617187 -0.832031,1.03124999 0,0.6796875 0.808594,0.890625 1.359375,0.890625 0.574219,0 0.9375,-0.328125 1.113281,-0.64453125 0.03516,0.3046875 0.246094,0.59765625 0.597657,0.59765625 0.08203,0 0.75,-0.0234375 0.75,-0.75 V -1.1607783 h -0.246094 v 0.44531249 c 0,0.328125 -0.117188,0.45703125 -0.28125,0.45703125 -0.292969,0 -0.292969,-0.375 -0.292969,-0.45703125 z m -0.609375,1.2539062 c 0,0.77343754 -0.65625,0.98437504 -0.972656,0.98437504 -0.410156,0 -0.761719,-0.28125 -0.761719,-0.66796875 0,-0.52734379 0.492188,-1.06640629 1.734375,-1.10156249 z m 2.967774,-2.0507812 h 1.195312 v -0.2578125 h -1.195312 v -1.4648438 h -0.246094 c 0,0.7265625 -0.328125,1.4765625 -1.066406,1.5 v 0.2226563 h 0.714843 v 2.17968749 c 0,0.9375 0.714844,1.078125 1.078125,1.078125 0.539063,0 0.855469,-0.48046875 0.855469,-1.078125 V -1.4420283 h -0.246094 v 0.4335937 c 0,0.55078129 -0.246093,0.84375004 -0.550781,0.84375004 -0.539062,0 -0.539062,-0.69140625 -0.539062,-0.8203125 z m 3.375,-1.734375 c 0,-0.234375 -0.1875,-0.4453125 -0.445313,-0.4453125 -0.234375,0 -0.445312,0.1875 -0.445312,0.4335937 0,0.28125 0.234375,0.4570313 0.445312,0.4570313 0.269531,0 0.445313,-0.234375 0.445313,-0.4453125 z m -1.195313,1.4882812 v 0.2578125 c 0.503906,0 0.574219,0.046875 0.574219,0.4335938 v 2.10937499 c 0,0.36328125 -0.09375,0.36328125 -0.597656,0.36328125 v 0.2578125031 c 0.304687,-0.0234375031 0.75,-0.0234375031 0.867187,-0.0234375031 0.105469,0 0.585938,0 0.867188,0.0234375031 V -0.25843456 c -0.515625,0 -0.550782,-0.046875 -0.550782,-0.3515625 V -3.5162471 Z m 5.970703,1.7226563 c 0,-0.9960938 -0.820312,-1.8515625 -1.875,-1.8515625 -1.054687,0 -1.875,0.8554687 -1.875,1.8515625 0,0.99609374 0.855469,1.78124999 1.875,1.78124999 1.03125,0 1.875,-0.78515625 1.875,-1.78124999 z m -1.875,1.53515624 c -0.433593,0 -0.761718,-0.2109375 -0.9375,-0.4921875 -0.199218,-0.328125 -0.222656,-0.71484374 -0.222656,-1.11328124 0,-0.3046875 0,-0.7851563 0.246094,-1.125 0.210937,-0.28125 0.539062,-0.4335938 0.914062,-0.4335938 0.421875,0 0.761719,0.1992188 0.9375,0.4804688 0.222657,0.328125 0.222657,0.7617187 0.222657,1.078125 0,0.3632812 -0.01172,0.80859374 -0.234375,1.13671874 -0.210938,0.31640625 -0.574219,0.46875 -0.925782,0.46875 z m 5.991211,-2.25000004 c 0,-0.6679687 -0.292969,-1.1015625 -1.136719,-1.1015625 -0.785156,0 -1.148437,0.5742188 -1.242187,0.7617188 h -0.01172 v -0.7617188 l -1.148437,0.09375 v 0.2578125 c 0.539062,0 0.609375,0.058594 0.609375,0.4453125 v 2.09765629 c 0,0.36328125 -0.105469,0.36328125 -0.609375,0.36328125 V -6.220569e-4 C 35.992598,-0.02405956 36.344161,-0.02405956 36.555098,-0.02405956 c 0.234375,0 0.574219,0 0.914063,0.0234375031 V -0.25843456 c -0.515625,0 -0.609375,0 -0.609375,-0.36328125 V -2.0631221 c 0,-0.84375 0.644531,-1.2304687 1.125,-1.2304687 0.492187,0 0.609375,0.3398437 0.609375,0.84375 v 1.82812499 c 0,0.36328125 -0.09375,0.36328125 -0.609375,0.36328125 V -6.220569e-4 C 38.32463,-0.02405956 38.676192,-0.02405956 38.898848,-0.02405956 c 0.222657,0 0.5625,0 0.902344,0.0234375031 V -0.25843456 c -0.503906,0 -0.609375,0 -0.609375,-0.36328125 z m 0,0"
       style="fill:#262626;fill-opacity:1;fill-rule:nonzero;stroke:none"
       aria-label="translation"
       transform="matrix(1.3333333,0,0,1.3333333,68.857525,7.3797357)" />
    <path
       id="path24"
       d="m 64.489015,34.923427 h 9"
       style="fill:none;stroke:#023eff;stroke-width:1;stroke-linecap:butt;stroke-linejoin:round;stroke-miterlimit:10;stroke-dasharray:6.4, 1.6, 1, 1.6;stroke-dashoffset:0;stroke-opacity:1"
       transform="matrix(1.3333333,0,0,-1.3333333,0,100.77934)" />
    <path
       id="path25"
       d="m 1.6650861,-3.9954514 c -0.070312,-0.082031 -0.070312,-0.082031 -0.1992188,-0.082031 H 0.38774232 v 0.234375 h 0.1875 c 0.140625,0 0.29296875,0 0.41015625,0.023437 0.0351562,0.011719 0.0351562,0.011719 0.0351562,0.1171875 v 3.04687497 c 0,0.15234375 0,0.421875 -0.63281251,0.421875 V 6.423652e-4 C 0.50492982,-0.01107638 0.89164857,-0.02279513 1.1377423,-0.02279513 c 0.28125,0 0.65625,0.01171875 0.7617188,0.0234374952 V -0.23373263 c -0.6328125,0 -0.6328125,-0.26953125 -0.6328125,-0.421875 V -3.6438889 l 2.8125,3.57421877 c 0.046875,0.05859375 0.046875,0.0703124952 0.1289062,0.0703124952 0.1171875,0 0.1171875,-0.0585937452 0.1171875,-0.1757812452 V -3.4212326 c 0,-0.1523438 0,-0.421875 0.6328125,-0.421875 v -0.234375 c -0.1054687,0 -0.5039062,0.023437 -0.75,0.023437 -0.2695312,0 -0.65625,-0.023437 -0.7617187,-0.023437 v 0.234375 c 0.6328125,0 0.6328125,0.2695312 0.6328125,0.421875 v 2.49609372 z m 8.3085937,2.4023438 H 9.7510236 c -0.1640625,0.92578122 -0.328125,1.35937497 -1.4648438,1.35937497 H 7.2666486 c -0.2929688,0 -0.2929688,-0.046875 -0.2929688,-0.234375 V -1.9915451 h 0.6445313 c 0.609375,0 0.7265625,0.1640625 0.7265625,0.703125 H 8.5674298 V -2.9173264 H 8.3447736 c 0,0.5390625 -0.1171875,0.6914063 -0.7265625,0.6914063 H 6.9736798 v -1.3710938 c 0,-0.1757812 0,-0.2226562 0.2929688,-0.2226562 h 0.9609375 c 0.9960937,0 1.2070312,0.28125 1.3242187,1.1601562 h 0.2226563 l -0.1875,-1.3945312 h -3.84375 v 0.234375 h 0.1523437 c 0.4804688,0 0.4804688,0.070312 0.4804688,0.2695312 v 3.04687502 c 0,0.19921875 0,0.26953125 -0.4804688,0.26953125 H 5.7432111 V 6.423652e-4 h 3.9492187 z m 4.9951172,-2.4492188 c 0,-0.09375 0,-0.1640625 -0.09375,-0.1640625 -0.05859,0 -0.07031,0.023437 -0.105469,0.082031 l -0.328125,0.4453125 c -0.351562,-0.3398438 -0.820312,-0.5273438 -1.3125,-0.5273438 -1.324218,0 -2.414062,0.984375 -2.414062,2.1679688 0,1.19531247 1.089844,2.16796872 2.414062,2.16796872 1.101563,0 1.839844,-0.7734375 1.839844,-1.52343752 0,-0.070312 -0.01172,-0.1289062 -0.117187,-0.1289062 -0.09375,0 -0.09375,0.046875 -0.105469,0.1054687 -0.04687,0.91406252 -0.878906,1.31250002 -1.535156,1.31250002 -0.714844,0 -1.828125,-0.421875 -1.828125,-1.93359372 0,-1.4882813 1.078125,-1.9335938 1.816406,-1.9335938 0.679687,0 1.382812,0.4570313 1.523437,1.3710938 0.02344,0.082031 0.02344,0.1171875 0.128907,0.1171875 0.117187,0 0.117187,-0.046875 0.117187,-0.1640625 z m 0,0"
       style="fill:#262626;fill-opacity:1;fill-rule:nonzero;stroke:none"
       aria-label="NEC"
       transform="matrix(1.3333333,0,0,1.3333333,104.38535,57.014769)" />
    <path
       id="path26"
       d="m 64.489015,26.277926 h 9"
       style="fill:none;stroke:#ff7c00;stroke-width:1;stroke-linecap:butt;stroke-linejoin:round;stroke-miterlimit:10;stroke-dasharray:3.7, 1.6;stroke-dashoffset:0;stroke-opacity:1"
       transform="matrix(1.3333333,0,0,-1.3333333,0,100.77934)" />
    <path
       id="path27"
       d="m 1.6299298,-1.8391947 h 1.21875 c 0.7734375,0 1.5703125,-0.4570312 1.5703125,-1.1015625 0,-0.6210937 -0.7382812,-1.1367187 -1.6289062,-1.1367187 H 0.39946107 v 0.234375 h 0.15234375 c 0.48046878,0 0.48046878,0.070312 0.48046878,0.2695312 v 3.0703125 c 0,0.19921875 0,0.26953125 -0.48046878,0.26953125 H 0.39946107 V 6.49054e-4 C 0.48149232,-0.0110697 1.0791486,-0.02278845 1.3369611,-0.02278845 c 0.2460937,0 0.8320312,0.01171875 0.9257812,0.023437504 V -0.23372595 H 2.1103986 c -0.4804688,0 -0.4804688,-0.0703125 -0.4804688,-0.26953125 z m 1.0078125,-2.0039062 c 0.9375,0 1.1132813,0.4335937 1.1132813,0.9023437 0,0.3632813 -0.082031,0.9023438 -1.1132813,0.9023438 h -1.03125 v -1.5820313 c 0,-0.1757812 0,-0.2226562 0.2929688,-0.2226562 z m 3.9169922,-0.1523438 c -0.070312,-0.082031 -0.070312,-0.082031 -0.1992187,-0.082031 h -1.078125 v 0.234375 h 0.1875 c 0.140625,0 0.2929687,0 0.4101562,0.023437 0.035156,0.011719 0.035156,0.011719 0.035156,0.1171875 v 3.04687495 c 0,0.15234375 0,0.421875 -0.6328125,0.421875 V 6.49054e-4 c 0.1171875,-0.011718754 0.5039062,-0.023437504 0.75,-0.023437504 0.28125,0 0.65625,0.01171875 0.7617187,0.023437504 V -0.23372595 c -0.6328125,0 -0.6328125,-0.26953125 -0.6328125,-0.421875 V -3.6438822 l 2.8125,3.57421875 c 0.046875,0.05859375 0.046875,0.070312504 0.1289063,0.070312504 0.1171875,0 0.1171875,-0.058593754 0.1171875,-0.175781254 v -3.2460937 c 0,-0.1523438 0,-0.421875 0.6328125,-0.421875 v -0.234375 c -0.1054688,0 -0.5039063,0.023437 -0.75,0.023437 -0.2695313,0 -0.65625,-0.023437 -0.7617188,-0.023437 v 0.234375 c 0.6328125,0 0.6328125,0.2695312 0.6328125,0.421875 v 2.4960937 z m 8.3085935,2.4023438 h -0.222656 c -0.164062,0.9257812 -0.328125,1.35937495 -1.464844,1.35937495 h -1.019531 c -0.292969,0 -0.292969,-0.046875 -0.292969,-0.234375 V -1.9915384 h 0.644532 c 0.609375,0 0.726562,0.1640625 0.726562,0.703125 h 0.222656 v -1.6289063 h -0.222656 c 0,0.5390625 -0.117187,0.6914063 -0.726562,0.6914063 h -0.644532 v -1.3710938 c 0,-0.1757812 0,-0.2226562 0.292969,-0.2226562 h 0.960938 c 0.996093,0 1.207031,0.28125 1.324218,1.1601562 h 0.222657 l -0.1875,-1.3945312 h -3.84375 v 0.234375 h 0.152343 c 0.480469,0 0.480469,0.070312 0.480469,0.2695312 v 3.046875 c 0,0.19921875 0,0.26953125 -0.480469,0.26953125 H 10.63286 V 6.49054e-4 h 3.949218 z m 4.995117,-2.4492188 c 0,-0.09375 0,-0.1640625 -0.09375,-0.1640625 -0.05859,0 -0.07031,0.023437 -0.105468,0.082031 l -0.328125,0.4453125 c -0.351563,-0.3398438 -0.820313,-0.5273438 -1.3125,-0.5273438 -1.324219,0 -2.414063,0.984375 -2.414063,2.1679688 0,1.19531245 1.089844,2.1679687 2.414063,2.1679687 1.101562,0 1.839843,-0.7734375 1.839843,-1.5234375 0,-0.070312 -0.01172,-0.1289062 -0.117187,-0.1289062 -0.09375,0 -0.09375,0.046875 -0.105469,0.1054687 -0.04687,0.9140625 -0.878906,1.3125 -1.535156,1.3125 -0.714844,0 -1.828125,-0.421875 -1.828125,-1.9335937 0,-1.4882813 1.078125,-1.9335938 1.816406,-1.9335938 0.679688,0 1.382813,0.4570313 1.523438,1.3710938 0.02344,0.082031 0.02344,0.1171875 0.128906,0.1171875 0.117187,0 0.117187,-0.046875 0.117187,-0.1640625 z m 5.34668,5.390625 c -0.65625,-0.50390625 -1.195312,-1.44140625 -1.195312,-2.8359375 0,-1.3828125 0.527343,-2.34375 1.195312,-2.8476562 0,-0.011719 0.02344,-0.035156 0.02344,-0.058594 0,-0.035156 -0.03516,-0.082031 -0.105469,-0.082031 -0.105469,0 -1.546875,0.9375 -1.546875,2.9882812 0,2.0390625 1.441406,2.9765625 1.546875,2.9765625 0.07031,0 0.105469,-0.046875 0.105469,-0.082031 0,-0.023437 -0.02344,-0.046875 -0.02344,-0.058594 z m 5.604492,-3.375 c 0,-1.171875 -1.019531,-2.1796875 -2.320312,-2.1796875 -1.300781,0 -2.320313,1.0078125 -2.320313,2.1796875 0,1.18359375 1.03125,2.15625 2.320313,2.15625 1.289062,0 2.320312,-0.97265625 2.320312,-2.15625 z m -2.320312,1.93359375 c -0.773438,0 -1.652344,-0.59765625 -1.652344,-2.02734375 0,-1.3359375 0.890625,-1.875 1.652344,-1.875 0.761719,0 1.652344,0.5507813 1.652344,1.875 0,1.4296875 -0.878907,2.02734375 -1.652344,2.02734375 z m 5.097656,-2.47265625 v 0.234375 c 0.421875,0 0.480469,0.035156 0.480469,0.328125 v 0.9960938 c 0,0.5507812 -0.375,0.8789062 -0.84375,0.8789062 -0.5625,0 -0.585938,-0.2578125 -0.585938,-0.55078125 V -2.6360697 l -0.972656,0.070312 v 0.234375 c 0.46875,0 0.46875,0.046875 0.46875,0.3984375 v 0.9375 c 0,0.41015625 0,0.66796875 0.269531,0.8671875 0.234375,0.1640625 0.527344,0.1875 0.785157,0.1875 0.375,0 0.691406,-0.15234375 0.902343,-0.4921875 v 0.4921875 l 0.9375,-0.058593746 V -0.23372595 c -0.410156,0 -0.46875,-0.0351563 -0.46875,-0.328125 V -2.6360697 Z m 3.026367,1.2304688 c 0,-0.5625 0.292969,-1.1015625 0.820313,-1.1132813 -0.05859,0.058594 -0.08203,0.1289063 -0.08203,0.2109375 0,0.1640625 0.128906,0.28125 0.28125,0.28125 0.164062,0 0.28125,-0.1171875 0.28125,-0.28125 0,-0.2460937 -0.222657,-0.3984375 -0.480469,-0.3984375 -0.363281,0 -0.667969,0.2109375 -0.855469,0.6210938 v -0.6210938 l -0.902344,0.070312 v 0.234375 c 0.410157,0 0.46875,0.035156 0.46875,0.328125 v 1.51171875 c 0,0.2578125 -0.05859,0.2578125 -0.46875,0.2578125 V 6.49054e-4 c 0.140625,-0.011718754 0.585938,-0.023437504 0.714844,-0.023437504 0.316406,0 0.726563,0.01171875 0.808594,0.023437504 V -0.23372595 H 37.07036 c -0.445313,0 -0.457032,-0.0585938 -0.457032,-0.2578125 z M 40.627,-2.4954447 c 0,-0.1054687 0,-0.1640625 -0.105469,-0.1640625 -0.02344,0 -0.03516,0 -0.128906,0.070312 -0.01172,0.011719 -0.01172,0.011719 -0.105469,0.082031 -0.222656,-0.1523438 -0.527343,-0.1523438 -0.65625,-0.1523438 -0.9375,0 -1.113281,0.46875 -1.113281,0.7382813 0,0.5859375 0.703125,0.6914062 1.160156,0.7734375 0.269532,0.035156 0.785157,0.1171875 0.785157,0.51562495 0,0.234375 -0.175782,0.50390625 -0.785157,0.50390625 -0.574218,0 -0.808593,-0.33984375 -0.9375,-0.78515625 -0.01172,-0.0585938 -0.02344,-0.09375 -0.105468,-0.09375 -0.117188,0 -0.117188,0.0585937 -0.117188,0.17578125 v 0.7265625 c 0,0.09375 0,0.1640625 0.09375,0.1640625 0.03516,0 0.04687,0 0.152344,-0.1171875 l 0.140625,-0.140625 c 0.292969,0.2578125 0.65625,0.2578125 0.773437,0.2578125 0.878907,0 1.113282,-0.48046875 1.113282,-0.83203125 0,-0.234375 -0.117188,-0.4101563 -0.246094,-0.5273438 -0.257813,-0.2226562 -0.492188,-0.2695312 -0.855469,-0.328125 -0.445312,-0.070312 -0.84375,-0.140625 -0.84375,-0.4453125 0,-0.1757812 0.164063,-0.421875 0.785156,-0.421875 0.421875,0 0.738282,0.1640625 0.773438,0.5859375 0,0.070312 0.01172,0.1289063 0.105469,0.1289063 0.117187,0 0.117187,-0.058594 0.117187,-0.1757813 z m 2.604492,1.0078125 c 0,-2.0507812 -1.441406,-2.9882812 -1.558593,-2.9882812 -0.07031,0 -0.08203,0.046875 -0.08203,0.082031 0,0.035156 0,0.035156 0.105469,0.1289063 0.539063,0.46875 1.101563,1.3476562 1.101563,2.7773437 0,1.265625 -0.445313,2.21484375 -1.125,2.7773438 -0.08203,0.082031 -0.08203,0.082031 -0.08203,0.1171875 0,0.035156 0.01172,0.082031 0.08203,0.082031 0.117187,0 1.558593,-0.9375 1.558593,-2.9765625 z m 0,0"
       style="fill:#262626;fill-opacity:1;fill-rule:nonzero;stroke:none"
       aria-label="PNEC(Ours)"
       transform="matrix(1.3333333,0,0,1.3333333,104.38535,68.542103)" />
  </g>
</svg>
